<svg xmlns="http://www.w3.org/2000/svg" xmlns:xlink="http://www.w3.org/1999/xlink" width="436" height="434"><style><![CDATA[.e{fill:#fff}.f{fill-rule:nonzero}.g{fill:#F3376B}.h{stroke:#E3EBFC}.i{stroke-width:2.04}.j{fill:#5F667E}]]></style><defs><rect id="A" width="236" height="61.316" rx="8.16" y="0"/><filter x="-8.5%" y="-26.1%" width="116.9%" height="165.2%" id="B"><feOffset dy="4" in="SourceAlpha"/><feGaussianBlur stdDeviation="6"/><feComposite in2="SourceAlpha" operator="out"/><feColorMatrix values="0 0 0 0 0.207843137 0 0 0 0 0.415686275 0 0 0 0 0.901960784 0 0 0 0.12 0"/></filter><path d="M1.7 1.7v1.7h17V1.7h-17zM0 0h20.4v5.1H0V0zm0 7.65h20.4v5.1H0v-5.1zm1.7 1.7v1.7h17v-1.7h-17zM0 15.3h20.4v5.1H0v-5.1z" id="C"/><rect id="D" width="227.65" height="61.316" rx="8.16" y="0"/><filter x="-8.8%" y="-26.1%" width="117.6%" height="165.2%" id="E"><feOffset dy="4" in="SourceAlpha"/><feGaussianBlur stdDeviation="6"/><feComposite in2="SourceAlpha" operator="out"/><feColorMatrix values="0 0 0 0 0.207843137 0 0 0 0 0.415686275 0 0 0 0 0.901960784 0 0 0 0.12 0"/></filter><path d="M7.65 12.75v2.04a.51.51 0 0 0 .51.51h4.08a.51.51 0 0 0 .51-.51v-2.04h7.65v7.65H0v-7.65h7.65zM2.55 5.1V2.55A2.55 2.55 0 0 1 5.1 0h10.2a2.55 2.55 0 0 1 2.55 2.55V5.1h2.55v5.1H0V5.1h2.55zM5.1 2.55V5.1h10.2V2.55H5.1z" id="F"/><rect id="G" width="257.65" height="61.316" rx="8.16" y="0"/><filter x="-7.8%" y="-26.1%" width="115.5%" height="165.2%" id="H"><feOffset dy="4" in="SourceAlpha"/><feGaussianBlur stdDeviation="6"/><feComposite in2="SourceAlpha" operator="out"/><feColorMatrix values="0 0 0 0 0.207843137 0 0 0 0 0.415686275 0 0 0 0 0.901960784 0 0 0 0.12 0"/></filter><path d="M11.475 10.2H15.3L7.65 20.4V10.2H5.1V0h10.2l-3.825 10.2z" id="I"/><rect id="J" width="259.65" height="61.316" rx="8.16" y="0"/><filter x="-7.7%" y="-26.1%" width="115.4%" height="165.2%" id="K"><feOffset dy="4" in="SourceAlpha"/><feGaussianBlur stdDeviation="6"/><feComposite in2="SourceAlpha" operator="out"/><feColorMatrix values="0 0 0 0 0.207843137 0 0 0 0 0.415686275 0 0 0 0 0.901960784 0 0 0 0.12 0"/></filter><path d="M0 2.55V5.1l10.2 5.1 10.2-5.1V2.55H0zm0 5.1v10.2h20.4V7.65l-10.2 5.1L0 7.65z" id="L"/><rect id="M" x=".917" y=".316" width="294" height="61" rx="8.16"/><filter x="-6.8%" y="-26.2%" width="113.6%" height="165.6%" id="N"><feOffset dy="4" in="SourceAlpha"/><feGaussianBlur stdDeviation="6"/><feColorMatrix values="0 0 0 0 0.207843137 0 0 0 0 0.415686275 0 0 0 0 0.901960784 0 0 0 0.12 0"/></filter><path d="M9.35 11.05V8.5h1.7v2.55h7.65v3.4H17v-1.7h-5.95v1.7h-1.7v-1.7H3.4v1.7H1.7v-3.4h7.65zM0 0h20.4v7.65H0V0zm0 15.3h5.1v5.1H0v-5.1zm7.65 0h5.1v5.1h-5.1v-5.1zm7.65 0h5.1v5.1h-5.1v-5.1z" id="O"/></defs><g transform="translate(0 8)" fill="none"><g fill="#E3EBFC" class="f"><circle cx="68" cy="123" r="68" opacity=".3"/><circle cx="342.5" cy="332.5" r="93.5" opacity=".3"/><circle cx="365" cy="108" r="28" opacity=".3"/></g><g transform="translate(49)"><path d="M146.5 25.548h2.042V386H146.5z" class="f g"/><g transform="translate(29)"><use filter="url(#B)" xlink:href="#A" fill="#000"/><rect x="1.02" y="1.02" width="233.96" height="59.276" rx="8.16" class="e h i"/><g transform="translate(19.38 20.458)"><mask class="e"><use xlink:href="#C"/></mask><use xlink:href="#C" class="f g"/></g><path d="M57.344 36.26c-1.397 0-2.494-.472-3.29-1.415s-1.193-2.313-1.193-4.108c0-.898.102-1.688.306-2.372s.5-1.26.887-1.73.86-.824 1.415-1.063 1.18-.36 1.874-.36c.928 0 1.706.204 2.333.612s1.12 1 1.476 1.805l-1.453.796c-.184-.5-.467-.915-.85-1.216s-.885-.45-1.507-.45c-.826 0-1.474.28-1.943.84s-.704 1.336-.704 2.326v1.622c0 .99.235 1.765.704 2.326s1.117.842 1.943.842c.643 0 1.165-.166 1.568-.497s.7-.757.895-1.278l1.392.842c-.357.775-.857 1.382-1.5 1.82s-1.428.658-2.356.658zm8.7 0a3.8 3.8 0 0 1-1.507-.291c-.454-.194-.84-.472-1.155-.834s-.56-.8-.734-1.316-.26-1.09-.26-1.72.087-1.206.26-1.72.418-.954.734-1.316.7-.64 1.155-.834a3.8 3.8 0 0 1 1.507-.291 3.8 3.8 0 0 1 1.507.291c.454.194.84.472 1.155.834s.56.8.734 1.316.26 1.09.26 1.72-.087 1.206-.26 1.72-.418.954-.734 1.316-.7.64-1.155.834a3.8 3.8 0 0 1-1.507.291zm0-1.377c.57 0 1.03-.176 1.377-.528s.52-.88.52-1.584v-1.346c0-.704-.173-1.232-.52-1.584s-.806-.528-1.377-.528-1.03.176-1.377.528-.52.88-.52 1.584v1.346c0 .704.173 1.232.52 1.584s.806.528 1.377.528zm5.508 1.193v-7.956h1.668v1.316h.077c.173-.428.436-.785.788-1.07s.834-.428 1.446-.428c.816 0 1.45.268 1.905.803s.68 1.298.68 2.287v5.05H76.44v-4.835c0-1.244-.5-1.867-1.5-1.867a2.44 2.44 0 0 0-.635.084 1.8 1.8 0 0 0-.558.252c-.163.112-.293.255-.4.428s-.145.377-.145.612v5.324h-1.668zm11.077 0c-.58 0-1.02-.15-1.316-.45s-.444-.727-.444-1.278v-4.865h-1.24v-1.362h.673c.275 0 .467-.06.574-.184s.16-.32.16-.597V25.95h1.5v2.173h1.668v1.362h-1.668v5.233h1.545v1.362H82.62zm9.21 0c-.44 0-.775-.125-1-.375s-.377-.57-.428-.956h-.076c-.153.5-.433.877-.84 1.132s-.903.383-1.484.383c-.826 0-1.46-.214-1.905-.643s-.666-1.005-.666-1.73c0-.796.288-1.392.864-1.8s1.42-.597 2.532-.597h1.438v-.673c0-.5-.133-.867-.398-1.132s-.678-.398-1.24-.398c-.47 0-.852.102-1.147.306a2.74 2.74 0 0 0-.75.78l-.995-.903c.265-.45.637-.82 1.117-1.11s1.107-.436 1.882-.436c1.03 0 1.82.24 2.37.72s.826 1.168.826 2.066v3.993h.842v1.362h-.933zm-3.366-1.086c.52 0 .95-.115 1.285-.344s.505-.538.505-.926v-1.148h-1.408c-1.153 0-1.73.357-1.73 1.07v.275c0 .357.12.625.36.803s.57.268.987.268zm9.012 1.27c-.57 0-1.08-.097-1.53-.29s-.826-.472-1.132-.834a3.78 3.78 0 0 1-.704-1.316c-.163-.515-.245-1.09-.245-1.72s.082-1.206.245-1.72a3.78 3.78 0 0 1 .704-1.316c.306-.362.683-.64 1.132-.834s.96-.29 1.53-.29c.796 0 1.448.178 1.958.535s.882.83 1.117 1.423l-1.377.643c-.112-.367-.31-.66-.59-.88s-.65-.33-1.11-.33c-.612 0-1.074.19-1.385.574s-.467.88-.467 1.492v1.423c0 .612.156 1.11.467 1.492s.773.574 1.385.574c.5 0 .88-.12 1.17-.36s.523-.558.696-.956l1.27.673c-.265.653-.663 1.153-1.193 1.5s-1.178.52-1.943.52zm6.93-.184c-.58 0-1.02-.15-1.316-.45s-.444-.727-.444-1.278v-4.865h-1.24v-1.362h.673c.275 0 .467-.06.574-.184s.16-.32.16-.597V25.95h1.5v2.173h1.668v1.362h-1.668v5.233h1.545v1.362h-1.453zm9.517.184c-.755 0-1.387-.133-1.897-.398a4.16 4.16 0 0 1-1.331-1.102l1.07-.98a3.43 3.43 0 0 0 .987.834c.362.2.783.298 1.262.298.5 0 .854-.094 1.094-.283s.36-.45.36-.788c0-.255-.084-.472-.252-.65s-.462-.293-.88-.344l-.734-.092c-.816-.102-1.456-.34-1.92-.71s-.696-.926-.696-1.66c0-.388.07-.732.214-1.033s.344-.556.604-.765a2.79 2.79 0 0 1 .933-.482c.362-.112.762-.168 1.2-.168.714 0 1.298.112 1.752.337s.86.535 1.216.933l-1.025.98c-.204-.245-.472-.456-.803-.635s-.71-.268-1.14-.268c-.46 0-.798.092-1.017.275s-.33.423-.33.72c0 .306.097.535.29.688s.505.265.933.337l.734.092c.877.133 1.517.4 1.92.773s.604.895.604 1.538a2.41 2.41 0 0 1-.222 1.048 2.3 2.3 0 0 1-.635.803c-.275.224-.607.398-.995.52s-.82.184-1.3.184zm9.853-1.5h-.06c-.07.194-.166.382-.283.566s-.265.344-.444.482a2.12 2.12 0 0 1-.643.329c-.25.082-.538.122-.864.122-.826 0-1.466-.265-1.92-.796s-.68-1.3-.68-2.28v-5.064h1.668v4.85c0 1.234.5 1.85 1.53 1.85.214 0 .423-.028.627-.084s.385-.14.543-.252a1.29 1.29 0 0 0 .382-.428c.097-.173.145-.377.145-.612v-5.324h1.668v7.956h-1.668v-1.316zm4.055-10.006h1.668v4.682h.077c.173-.48.456-.85.85-1.11s.854-.4 1.385-.4c1 0 1.8.365 2.34 1.094s.826 1.752.826 3.068-.275 2.338-.826 3.068-1.33 1.094-2.34 1.094c-.53 0-.992-.133-1.385-.398s-.676-.632-.85-1.102h-.077v1.316h-1.668V24.756zm3.473 10.067c.58 0 1.045-.186 1.392-.558s.52-.864.52-1.476V31.41c0-.612-.173-1.104-.52-1.476s-.81-.558-1.392-.558c-.5 0-.938.125-1.285.375a1.16 1.16 0 0 0-.52.987v2.723a1.16 1.16 0 0 0 .52.987c.347.25.775.375 1.285.375zm5.585 1.255v-7.956h1.668v1.316h.076c.082-.204.18-.398.298-.58s.26-.344.428-.482a1.86 1.86 0 0 1 .597-.321c.23-.077.497-.115.803-.115.54 0 1.02.133 1.438.398s.724.673.918 1.224h.046a2.33 2.33 0 0 1 .826-1.148c.408-.316.933-.474 1.576-.474.796 0 1.413.268 1.85.803s.658 1.298.658 2.287v5.05h-1.668v-4.85c0-.612-.117-1.074-.352-1.385s-.607-.467-1.117-.467a2.19 2.19 0 0 0-.612.084c-.194.056-.365.14-.513.252a1.28 1.28 0 0 0-.36.428c-.092.173-.138.372-.138.597v5.34h-1.668v-4.85c0-1.234-.484-1.85-1.453-1.85-.204 0-.405.028-.604.084s-.375.14-.528.252-.275.255-.367.428-.138.372-.138.597v5.34h-1.668zm14.336-9.38c-.347 0-.6-.082-.757-.245s-.237-.372-.237-.627v-.26c0-.255.08-.464.237-.627s.41-.245.757-.245.597.082.75.245a.88.88 0 0 1 .23.627v.26a.88.88 0 0 1-.23.627c-.153.163-.403.245-.75.245zm-.84 1.423h1.668v7.956h-1.668v-7.956zm6.258 7.956c-.58 0-1.02-.15-1.316-.45s-.444-.727-.444-1.278v-4.865h-1.24v-1.362h.673c.275 0 .467-.06.574-.184s.16-.32.16-.597V25.95h1.5v2.173h1.668v1.362h-1.668v5.233h1.545v1.362h-1.453zm5.906.184c-.755 0-1.387-.133-1.897-.398a4.16 4.16 0 0 1-1.331-1.102l1.07-.98a3.43 3.43 0 0 0 .987.834c.362.2.783.298 1.262.298.5 0 .854-.094 1.094-.283s.36-.45.36-.788c0-.255-.084-.472-.252-.65s-.462-.293-.88-.344l-.734-.092c-.816-.102-1.456-.34-1.92-.71s-.696-.926-.696-1.66c0-.388.07-.732.214-1.033s.344-.556.604-.765a2.79 2.79 0 0 1 .933-.482c.362-.112.762-.168 1.2-.168.714 0 1.298.112 1.752.337s.86.535 1.216.933l-1.025.98c-.204-.245-.472-.456-.803-.635s-.71-.268-1.14-.268c-.46 0-.798.092-1.017.275s-.33.423-.33.72c0 .306.097.535.29.688s.505.265.933.337l.734.092c.877.133 1.517.4 1.92.773s.604.895.604 1.538a2.41 2.41 0 0 1-.222 1.048 2.3 2.3 0 0 1-.635.803c-.275.224-.607.398-.994.52s-.82.184-1.3.184zm14.474-.184c-.44 0-.775-.125-1-.375s-.377-.57-.428-.956h-.076c-.153.5-.433.877-.84 1.132s-.903.383-1.484.383c-.826 0-1.46-.214-1.905-.643s-.666-1.005-.666-1.73c0-.796.288-1.392.864-1.8s1.42-.597 2.532-.597h1.438v-.673c0-.5-.133-.867-.398-1.132s-.678-.398-1.24-.398c-.47 0-.852.102-1.147.306a2.74 2.74 0 0 0-.75.78l-.994-.903c.265-.45.637-.82 1.117-1.11s1.107-.436 1.882-.436c1.03 0 1.82.24 2.37.72s.826 1.168.826 2.066v3.993h.84v1.362h-.933zm-3.366-1.086c.52 0 .95-.115 1.285-.344s.505-.538.505-.926v-1.148h-1.408c-1.153 0-1.73.357-1.73 1.07v.275c0 .357.12.625.36.803s.57.268.987.268zm9.96-5.508h-1.21v-1.362h1.21v-1.316c0-.643.168-1.145.505-1.507s.84-.543 1.515-.543h1.316v1.362h-1.668v2.004h1.668v1.362h-1.668v6.594h-1.668v-6.594zm7.9 6.778a3.8 3.8 0 0 1-1.507-.291c-.454-.194-.84-.472-1.155-.834s-.56-.8-.734-1.316-.26-1.09-.26-1.72.087-1.206.26-1.72.418-.954.734-1.316.7-.64 1.155-.834a3.8 3.8 0 0 1 1.507-.291 3.8 3.8 0 0 1 1.507.291c.454.194.84.472 1.155.834s.56.8.734 1.316.26 1.09.26 1.72-.087 1.206-.26 1.72-.418.954-.734 1.316-.7.64-1.155.834a3.8 3.8 0 0 1-1.507.291zm0-1.377c.57 0 1.03-.176 1.377-.528s.52-.88.52-1.584v-1.346c0-.704-.173-1.232-.52-1.584s-.806-.528-1.377-.528-1.03.176-1.377.528-.52.88-.52 1.584v1.346c0 .704.173 1.232.52 1.584s.806.528 1.377.528zm5.508 1.193v-7.956h1.668v1.53h.077c.112-.408.347-.765.704-1.07s.852-.46 1.484-.46h.444v1.607h-.658c-.663 0-1.17.107-1.522.32a1.04 1.04 0 0 0-.528.949v5.08h-1.668zm5.86 0v-7.956h1.668v1.316h.076c.082-.204.18-.398.298-.58s.26-.344.428-.482a1.86 1.86 0 0 1 .597-.321c.23-.077.497-.115.803-.115.54 0 1.02.133 1.438.398s.724.673.918 1.224h.046a2.33 2.33 0 0 1 .826-1.148c.408-.316.933-.474 1.576-.474.796 0 1.413.268 1.85.803s.658 1.298.658 2.287v5.05H212.4v-4.85c0-.612-.117-1.074-.352-1.385s-.607-.467-1.117-.467a2.19 2.19 0 0 0-.612.084c-.194.056-.365.14-.513.252a1.28 1.28 0 0 0-.36.428c-.092.173-.138.372-.138.597v5.34h-1.668v-4.85c0-1.234-.484-1.85-1.453-1.85-.204 0-.405.028-.604.084s-.375.14-.528.252-.275.255-.367.428-.138.372-.138.597v5.34h-1.668z" class="j"/></g><g transform="translate(34 86)"><use filter="url(#E)" xlink:href="#D" fill="#000"/><rect x="1.02" y="1.02" width="225.61" height="59.276" rx="8.16" class="e h i"/><g transform="translate(19.38 20.458)"><mask class="e"><use xlink:href="#F"/></mask><use xlink:href="#F" class="f g"/></g><path d="M57.344 36.26c-1.397 0-2.494-.472-3.29-1.415s-1.193-2.313-1.193-4.108c0-.898.102-1.688.306-2.372s.5-1.26.887-1.73.86-.824 1.415-1.063 1.18-.36 1.874-.36c.928 0 1.706.204 2.333.612s1.12 1 1.476 1.805l-1.453.796c-.184-.5-.467-.915-.85-1.216s-.885-.45-1.507-.45c-.826 0-1.474.28-1.943.84s-.704 1.336-.704 2.326v1.622c0 .99.235 1.765.704 2.326s1.117.842 1.943.842c.643 0 1.165-.166 1.568-.497s.7-.757.895-1.278l1.392.842c-.357.775-.857 1.382-1.5 1.82s-1.428.658-2.356.658zm5.57-.184v-7.956h1.668v1.53h.076c.112-.408.347-.765.704-1.07s.852-.46 1.484-.46h.444v1.607h-.658c-.663 0-1.17.107-1.522.32a1.04 1.04 0 0 0-.528.949v5.08h-1.668zm8.98.184c-.57 0-1.08-.097-1.53-.29s-.83-.472-1.147-.834-.558-.8-.727-1.316-.252-1.09-.252-1.72.084-1.206.252-1.72.41-.954.727-1.316.7-.64 1.147-.834.96-.29 1.53-.29c.58 0 1.094.102 1.538.306a3.06 3.06 0 0 1 1.109.849c.296.362.518.783.666 1.262s.222.994.222 1.545v.627h-5.462v.26c0 .612.18 1.114.543 1.507s.88.59 1.553.59c.5 0 .903-.107 1.24-.32a2.8 2.8 0 0 0 .857-.872l.98.964c-.296.5-.724.88-1.285 1.17s-1.214.436-1.958.436zm0-7.023a1.99 1.99 0 0 0-.788.153c-.24.102-.444.245-.612.428s-.298.403-.4.658a2.47 2.47 0 0 0-.138.841v.107h3.703v-.153c0-.612-.158-1.104-.474-1.476s-.75-.558-1.3-.558zm11.215 6.84c-.44 0-.775-.125-1-.375s-.377-.57-.428-.956h-.077c-.153.5-.433.877-.84 1.132s-.903.383-1.484.383c-.826 0-1.46-.214-1.905-.643s-.666-1.005-.666-1.73c0-.796.288-1.392.864-1.8s1.42-.597 2.532-.597h1.438v-.673c0-.5-.133-.867-.398-1.132s-.678-.398-1.24-.398c-.47 0-.852.102-1.148.306a2.74 2.74 0 0 0-.75.78l-.994-.903c.265-.45.637-.82 1.117-1.11s1.107-.436 1.882-.436c1.03 0 1.82.24 2.372.72s.826 1.168.826 2.066v3.993h.84v1.362H83.1zm-3.366-1.086c.52 0 .95-.115 1.285-.344s.505-.538.505-.926v-1.148h-1.408c-1.153 0-1.73.357-1.73 1.07v.275c0 .357.12.625.36.803s.57.268.987.268zm8.14 1.086c-.58 0-1.02-.15-1.316-.45s-.444-.727-.444-1.278v-4.865h-1.24v-1.362h.673c.275 0 .467-.06.574-.184s.16-.32.16-.597V25.95h1.5v2.173h1.668v1.362H87.79v5.233h1.545v1.362h-1.453zm6.502.184c-.57 0-1.08-.097-1.53-.29s-.83-.472-1.147-.834-.558-.8-.727-1.316-.252-1.09-.252-1.72.084-1.206.252-1.72.41-.954.727-1.316.7-.64 1.147-.834.96-.29 1.53-.29c.58 0 1.094.102 1.538.306a3.06 3.06 0 0 1 1.109.849c.296.362.518.783.666 1.262s.222.994.222 1.545v.627h-5.462v.26c0 .612.18 1.114.543 1.507s.88.59 1.553.59c.5 0 .903-.107 1.24-.32a2.8 2.8 0 0 0 .857-.872l.98.964c-.296.5-.724.88-1.285 1.17s-1.214.436-1.958.436zm0-7.023a1.99 1.99 0 0 0-.788.153c-.24.102-.444.245-.612.428s-.298.403-.4.658a2.47 2.47 0 0 0-.138.841v.107h3.703v-.153c0-.612-.158-1.104-.474-1.476s-.75-.558-1.3-.558zm14 5.523h-.076c-.173.47-.456.836-.85 1.102s-.854.398-1.385.398c-1 0-1.8-.365-2.34-1.094s-.826-1.752-.826-3.068.275-2.338.826-3.068 1.33-1.094 2.34-1.094c.53 0 .992.13 1.385.4s.676.63.85 1.11h.076v-4.682h1.668v11.322h-1.668v-1.316zm-1.805.06c.5 0 .938-.125 1.285-.375a1.16 1.16 0 0 0 .52-.987v-2.723a1.16 1.16 0 0 0-.52-.987c-.347-.25-.775-.375-1.285-.375-.58 0-1.045.186-1.392.558s-.52.864-.52 1.476v1.377c0 .612.173 1.104.52 1.476s.81.558 1.392.558zm8.98 1.438c-.57 0-1.08-.097-1.53-.29s-.83-.472-1.148-.834-.558-.8-.727-1.316-.252-1.09-.252-1.72.084-1.206.252-1.72.41-.954.727-1.316.7-.64 1.148-.834.96-.29 1.53-.29c.58 0 1.094.102 1.538.306a3.06 3.06 0 0 1 1.109.849c.296.362.518.783.666 1.262s.222.994.222 1.545v.627h-5.462v.26c0 .612.18 1.114.543 1.507s.88.59 1.553.59c.5 0 .903-.107 1.24-.32a2.8 2.8 0 0 0 .857-.872l.98.964c-.296.5-.724.88-1.285 1.17s-1.214.436-1.958.436zm0-7.023a1.99 1.99 0 0 0-.788.153c-.24.102-.444.245-.612.428s-.298.403-.4.658a2.47 2.47 0 0 0-.138.841v.107h3.703v-.153c0-.612-.158-1.104-.474-1.476s-.75-.558-1.3-.558zm11.215 6.84c-.44 0-.775-.125-1-.375s-.377-.57-.428-.956h-.076c-.153.5-.433.877-.84 1.132s-.903.383-1.484.383c-.826 0-1.46-.214-1.905-.643s-.666-1.005-.666-1.73c0-.796.288-1.392.864-1.8s1.42-.597 2.532-.597h1.438v-.673c0-.5-.133-.867-.398-1.132s-.678-.398-1.24-.398c-.47 0-.852.102-1.147.306a2.74 2.74 0 0 0-.75.78l-.995-.903c.265-.45.637-.82 1.117-1.11s1.107-.436 1.882-.436c1.03 0 1.82.24 2.37.72s.826 1.168.826 2.066v3.993h.842v1.362h-.933zm-3.366-1.086c.52 0 .95-.115 1.285-.344s.505-.538.505-.926v-1.148h-1.408c-1.153 0-1.73.357-1.73 1.07v.275c0 .357.12.625.36.803s.57.268.987.268zm7.635 1.086c-.57 0-.997-.145-1.278-.436s-.42-.696-.42-1.216v-9.67h1.668v9.96h1.102v1.362h-1.07zm3.84.184c-.377 0-.658-.1-.842-.298s-.275-.446-.275-.742v-.23c0-.296.092-.543.275-.742s.464-.298.842-.298.658.1.84.298.275.446.275.742v.23c0 .296-.092.543-.275.742s-.464.298-.84.298zm0-5.936c-.377 0-.658-.1-.842-.298s-.275-.446-.275-.742v-.23c0-.296.092-.543.275-.742s.464-.298.842-.298.658.1.84.298.275.446.275.742v.23c0 .296-.092.543-.275.742s-.464.298-.84.298zm10.174-.153l-1.178-2.264h-.046v8.17h-1.652v-10.68h1.928l3.488 5.906 1.178 2.264h.046v-8.17h1.652v10.68h-1.928l-3.488-5.906zm11.047 6.09c-.57 0-1.08-.097-1.53-.29s-.83-.472-1.147-.834-.558-.8-.727-1.316-.252-1.09-.252-1.72.084-1.206.252-1.72.41-.954.727-1.316.7-.64 1.147-.834.96-.29 1.53-.29c.58 0 1.094.102 1.538.306a3.06 3.06 0 0 1 1.109.849c.296.362.518.783.666 1.262s.222.994.222 1.545v.627h-5.462v.26c0 .612.18 1.114.543 1.507s.88.59 1.553.59c.5 0 .903-.107 1.24-.32a2.8 2.8 0 0 0 .857-.872l.98.964c-.296.5-.724.88-1.285 1.17s-1.214.436-1.958.436zm0-7.023a1.99 1.99 0 0 0-.788.153c-.24.102-.444.245-.612.428s-.298.403-.4.658a2.47 2.47 0 0 0-.138.841v.107h3.703v-.153c0-.612-.158-1.104-.474-1.476s-.75-.558-1.3-.558zm4.6-1.117h1.622l.81 3.335.72 3.014h.046l.826-3.014.964-3.335h1.5l.98 3.335.842 3.014h.046l.704-3.014.826-3.335h1.545l-2.142 7.956H168.1l-1.683-5.86h-.03l-.627 2.234-1.056 3.626h-1.836l-2.173-7.956zm18.33 7.956c-.57 0-.997-.145-1.278-.436s-.42-.696-.42-1.216v-9.67h1.668v9.96h1.102v1.362h-1.07zm5.783.184c-.57 0-1.08-.097-1.53-.29s-.83-.472-1.147-.834-.558-.8-.727-1.316-.252-1.09-.252-1.72.084-1.206.252-1.72.41-.954.727-1.316.7-.64 1.147-.834.96-.29 1.53-.29c.58 0 1.094.102 1.538.306a3.06 3.06 0 0 1 1.109.849c.296.362.518.783.666 1.262s.222.994.222 1.545v.627h-5.462v.26c0 .612.18 1.114.543 1.507s.88.59 1.553.59c.5 0 .903-.107 1.24-.32a2.8 2.8 0 0 0 .857-.872l.98.964c-.296.5-.724.88-1.285 1.17s-1.214.436-1.958.436zm0-7.023a1.99 1.99 0 0 0-.788.153c-.24.102-.444.245-.612.428s-.298.403-.4.658a2.47 2.47 0 0 0-.138.841v.107h3.703v-.153c0-.612-.158-1.104-.474-1.476s-.75-.558-1.3-.558zm11.215 6.84c-.44 0-.775-.125-1-.375s-.377-.57-.428-.956h-.076c-.153.5-.433.877-.842 1.132s-.903.383-1.484.383c-.826 0-1.46-.214-1.905-.643s-.666-1.005-.666-1.73c0-.796.288-1.392.864-1.8s1.42-.597 2.532-.597h1.438v-.673c0-.5-.133-.867-.398-1.132s-.678-.398-1.24-.398c-.47 0-.852.102-1.148.306a2.74 2.74 0 0 0-.75.78l-.994-.903c.265-.45.637-.82 1.117-1.11s1.107-.436 1.882-.436c1.03 0 1.82.24 2.37.72s.826 1.168.826 2.066v3.993h.84v1.362h-.933zm-3.366-1.086c.52 0 .95-.115 1.285-.344s.505-.538.505-.926v-1.148h-1.408c-1.153 0-1.73.357-1.73 1.07v.275c0 .357.12.625.36.803s.57.268.987.268zm10.94-.23h-.077c-.173.47-.456.836-.85 1.102s-.854.398-1.385.398c-1 0-1.8-.365-2.34-1.094s-.826-1.752-.826-3.068.275-2.338.826-3.068 1.33-1.094 2.34-1.094c.53 0 .992.13 1.385.4s.676.63.85 1.11h.077v-4.682h1.668v11.322h-1.668v-1.316zm-1.805.06c.5 0 .938-.125 1.285-.375a1.16 1.16 0 0 0 .52-.987v-2.723a1.16 1.16 0 0 0-.52-.987c-.347-.25-.775-.375-1.285-.375-.58 0-1.045.186-1.392.558s-.52.864-.52 1.476v1.377c0 .612.173 1.104.52 1.476s.81.558 1.392.558z" class="j"/></g><g transform="translate(19 172)"><use filter="url(#H)" xlink:href="#G" fill="#000"/><rect x="1.02" y="1.02" width="255.61" height="59.276" rx="8.16" class="e h i"/><g transform="translate(19.38 20.458)"><mask class="e"><use xlink:href="#I"/></mask><use xlink:href="#I" class="f g"/></g><path d="M54.973 25.398v6.58c0 .908.173 1.59.52 2.05s.938.69 1.775.69 1.428-.23 1.775-.69.52-1.142.52-2.05v-6.58h1.698v6.304c0 .785-.07 1.464-.214 2.035s-.372 1.043-.688 1.415-.727.65-1.232.834-1.125.275-1.86.275-1.354-.092-1.86-.275-.915-.462-1.232-.834-.546-.844-.69-1.415-.214-1.25-.214-2.035v-6.304h1.698zm8.736 2.723h1.668v1.316h.076c.173-.48.456-.85.85-1.11s.854-.4 1.385-.4c1 0 1.8.365 2.34 1.094s.826 1.752.826 3.068-.275 2.338-.826 3.068-1.33 1.094-2.34 1.094c-.53 0-.992-.133-1.385-.398s-.676-.632-.85-1.102h-.076v4.376H63.71V28.122zm3.473 6.7c.58 0 1.045-.186 1.392-.558s.52-.864.52-1.476V31.41c0-.612-.173-1.104-.52-1.476s-.81-.558-1.392-.558c-.5 0-.938.125-1.285.375a1.16 1.16 0 0 0-.52.987v2.723a1.16 1.16 0 0 0 .52.987c.347.25.775.375 1.285.375zm10.588-.06h-.077c-.173.47-.456.836-.85 1.102s-.854.398-1.385.398c-1 0-1.8-.365-2.34-1.094s-.826-1.752-.826-3.068.275-2.338.826-3.068 1.33-1.094 2.34-1.094c.53 0 .992.13 1.385.4s.676.63.85 1.11h.077v-4.682h1.668v11.322H77.77v-1.316zm-1.805.06c.5 0 .938-.125 1.285-.375a1.16 1.16 0 0 0 .52-.987v-2.723a1.16 1.16 0 0 0-.52-.987c-.347-.25-.775-.375-1.285-.375-.58 0-1.045.186-1.392.558s-.52.864-.52 1.476v1.377c0 .612.173 1.104.52 1.476s.81.558 1.392.558zm11.69 1.255c-.44 0-.775-.125-1-.375s-.377-.57-.428-.956h-.077c-.153.5-.433.877-.84 1.132s-.903.383-1.484.383c-.826 0-1.46-.214-1.905-.643s-.666-1.005-.666-1.73c0-.796.288-1.392.864-1.8s1.42-.597 2.532-.597h1.438v-.673c0-.5-.133-.867-.398-1.132s-.678-.398-1.24-.398c-.47 0-.852.102-1.148.306a2.74 2.74 0 0 0-.75.78l-.994-.903c.265-.45.637-.82 1.117-1.11s1.107-.436 1.882-.436c1.03 0 1.82.24 2.372.72s.826 1.168.826 2.066v3.993h.84v1.362h-.933zm-3.366-1.086c.52 0 .95-.115 1.285-.344s.505-.538.505-.926v-1.148H84.67c-1.153 0-1.73.357-1.73 1.07v.275c0 .357.12.625.36.803s.57.268.987.268zm8.14 1.086c-.58 0-1.02-.15-1.316-.45s-.444-.727-.444-1.278v-4.865h-1.24v-1.362h.673c.275 0 .467-.06.574-.184s.16-.32.16-.597V25.95h1.5v2.173h1.668v1.362h-1.668v5.233h1.545v1.362h-1.453zm6.502.184c-.57 0-1.08-.097-1.53-.29s-.83-.472-1.147-.834-.558-.8-.727-1.316-.252-1.09-.252-1.72.084-1.206.252-1.72.41-.954.727-1.316.7-.64 1.147-.834.96-.29 1.53-.29c.58 0 1.094.102 1.538.306a3.06 3.06 0 0 1 1.109.849c.296.362.518.783.666 1.262s.222.994.222 1.545v.627h-5.462v.26c0 .612.18 1.114.543 1.507s.88.59 1.553.59c.5 0 .903-.107 1.24-.32a2.8 2.8 0 0 0 .857-.872l.98.964c-.296.5-.724.88-1.285 1.17s-1.214.436-1.958.436zm0-7.023a1.99 1.99 0 0 0-.788.153c-.24.102-.444.245-.612.428s-.298.403-.4.658a2.47 2.47 0 0 0-.138.841v.107h3.703v-.153c0-.612-.158-1.104-.474-1.476s-.75-.558-1.3-.558zm14 5.523h-.076c-.173.47-.456.836-.85 1.102s-.854.398-1.385.398c-1 0-1.8-.365-2.34-1.094s-.826-1.752-.826-3.068.275-2.338.826-3.068 1.33-1.094 2.34-1.094c.53 0 .992.13 1.385.4s.676.63.85 1.11h.076v-4.682h1.668v11.322h-1.668v-1.316zm-1.805.06c.5 0 .938-.125 1.285-.375a1.16 1.16 0 0 0 .52-.987v-2.723a1.16 1.16 0 0 0-.52-.987c-.347-.25-.775-.375-1.285-.375-.58 0-1.045.186-1.392.558s-.52.864-.52 1.476v1.377c0 .612.173 1.104.52 1.476s.81.558 1.392.558zm8.98 1.438c-.57 0-1.08-.097-1.53-.29s-.83-.472-1.148-.834-.558-.8-.727-1.316-.252-1.09-.252-1.72.084-1.206.252-1.72.41-.954.727-1.316.7-.64 1.148-.834.96-.29 1.53-.29c.58 0 1.094.102 1.538.306a3.06 3.06 0 0 1 1.109.849c.296.362.518.783.666 1.262s.222.994.222 1.545v.627h-5.462v.26c0 .612.18 1.114.543 1.507s.88.59 1.553.59c.5 0 .903-.107 1.24-.32a2.8 2.8 0 0 0 .857-.872l.98.964c-.296.5-.724.88-1.285 1.17s-1.214.436-1.958.436zm0-7.023a1.99 1.99 0 0 0-.788.153c-.24.102-.444.245-.612.428s-.298.403-.4.658a2.47 2.47 0 0 0-.138.841v.107h3.703v-.153c0-.612-.158-1.104-.474-1.476s-.75-.558-1.3-.558zm11.215 6.84c-.44 0-.775-.125-1-.375s-.377-.57-.428-.956h-.076c-.153.5-.433.877-.842 1.132s-.903.383-1.484.383c-.826 0-1.46-.214-1.905-.643s-.666-1.005-.666-1.73c0-.796.288-1.392.864-1.8s1.42-.597 2.532-.597h1.438v-.673c0-.5-.133-.867-.398-1.132s-.678-.398-1.24-.398c-.47 0-.852.102-1.147.306a2.74 2.74 0 0 0-.75.78l-.995-.903c.265-.45.637-.82 1.117-1.11s1.107-.436 1.882-.436c1.03 0 1.82.24 2.37.72s.826 1.168.826 2.066v3.993h.84v1.362h-.933zm-3.366-1.086c.52 0 .95-.115 1.285-.344s.505-.538.505-.926v-1.148h-1.408c-1.153 0-1.73.357-1.73 1.07v.275c0 .357.12.625.36.803s.57.268.987.268zm7.635 1.086c-.57 0-.997-.145-1.278-.436s-.42-.696-.42-1.216v-9.67h1.668v9.96h1.102v1.362h-1.07zm8.797.184c-.755 0-1.387-.133-1.897-.398a4.16 4.16 0 0 1-1.331-1.102l1.07-.98a3.43 3.43 0 0 0 .987.834c.362.2.783.298 1.262.298.5 0 .854-.094 1.094-.283s.36-.45.36-.788c0-.255-.084-.472-.252-.65s-.462-.293-.88-.344l-.734-.092c-.816-.102-1.456-.34-1.92-.71s-.696-.926-.696-1.66c0-.388.07-.732.214-1.033s.344-.556.604-.765a2.79 2.79 0 0 1 .933-.482c.362-.112.762-.168 1.2-.168.714 0 1.298.112 1.752.337s.86.535 1.216.933l-1.025.98c-.204-.245-.472-.456-.803-.635s-.71-.268-1.14-.268c-.46 0-.798.092-1.017.275s-.33.423-.33.72c0 .306.097.535.29.688s.505.265.933.337l.734.092c.877.133 1.517.4 1.92.773s.604.895.604 1.538a2.41 2.41 0 0 1-.222 1.048 2.3 2.3 0 0 1-.635.803c-.275.224-.607.398-.994.52s-.82.184-1.3.184zm7.237-.184c-.58 0-1.02-.15-1.316-.45s-.444-.727-.444-1.278v-4.865h-1.24v-1.362h.673c.275 0 .467-.06.574-.184s.16-.32.16-.597V25.95h1.5v2.173h1.668v1.362h-1.668v5.233h1.545v1.362h-1.454zm9.21 0c-.44 0-.775-.125-1-.375s-.377-.57-.428-.956h-.076c-.153.5-.433.877-.842 1.132s-.903.383-1.484.383c-.826 0-1.46-.214-1.905-.643s-.666-1.005-.666-1.73c0-.796.288-1.392.864-1.8s1.42-.597 2.532-.597h1.438v-.673c0-.5-.133-.867-.398-1.132s-.678-.398-1.24-.398c-.47 0-.852.102-1.148.306a2.74 2.74 0 0 0-.75.78l-.994-.903c.265-.45.637-.82 1.117-1.11s1.107-.436 1.882-.436c1.03 0 1.82.24 2.37.72s.826 1.168.826 2.066v3.993h.84v1.362h-.933zm-3.366-1.086c.52 0 .95-.115 1.285-.344s.505-.538.505-.926v-1.148h-1.408c-1.153 0-1.73.357-1.73 1.07v.275c0 .357.12.625.36.803s.57.268.987.268zm8.14 1.086c-.58 0-1.02-.15-1.316-.45s-.444-.727-.444-1.278v-4.865h-1.24v-1.362h.673c.275 0 .467-.06.574-.184s.16-.32.16-.597V25.95h1.5v2.173h1.668v1.362h-1.668v5.233h1.545v1.362h-1.453zm8.2-1.316h-.06c-.07.194-.166.382-.283.566s-.265.344-.444.482a2.12 2.12 0 0 1-.643.329c-.25.082-.538.122-.864.122-.826 0-1.466-.265-1.92-.796s-.68-1.3-.68-2.28v-5.064h1.668v4.85c0 1.234.5 1.85 1.53 1.85.214 0 .423-.028.627-.084s.385-.14.543-.252a1.29 1.29 0 0 0 .383-.428c.097-.173.145-.377.145-.612v-5.324h1.668v7.956h-1.668v-1.316zm6.58 1.5c-.755 0-1.387-.133-1.897-.398a4.16 4.16 0 0 1-1.331-1.102l1.07-.98a3.43 3.43 0 0 0 .987.834c.362.2.783.298 1.262.298.5 0 .854-.094 1.094-.283s.36-.45.36-.788c0-.255-.084-.472-.252-.65s-.462-.293-.88-.344l-.734-.092c-.816-.102-1.456-.34-1.92-.71s-.696-.926-.696-1.66c0-.388.07-.732.214-1.033s.344-.556.604-.765a2.79 2.79 0 0 1 .933-.482c.362-.112.762-.168 1.2-.168.714 0 1.298.112 1.752.337s.86.535 1.216.933l-1.025.98c-.204-.245-.472-.456-.803-.635s-.71-.268-1.14-.268c-.46 0-.798.092-1.017.275s-.33.423-.33.72c0 .306.097.535.29.688s.505.265.933.337l.734.092c.877.133 1.517.4 1.92.773s.604.895.604 1.538a2.41 2.41 0 0 1-.222 1.048 2.3 2.3 0 0 1-.635.803c-.275.224-.607.398-.994.52s-.82.184-1.3.184zm6.212 0c-.377 0-.658-.1-.842-.298s-.275-.446-.275-.742v-.23c0-.296.092-.543.275-.742s.464-.298.842-.298.658.1.84.298.275.446.275.742v.23c0 .296-.092.543-.275.742s-.464.298-.84.298zm0-5.936c-.377 0-.658-.1-.842-.298s-.275-.446-.275-.742v-.23c0-.296.092-.543.275-.742s.464-.298.842-.298.658.1.84.298.275.446.275.742v.23c0 .296-.092.543-.275.742s-.464.298-.84.298zm13.97 5.753l-.964-2.892h-3.993l-.933 2.892h-1.76l3.64-10.68h2.173l3.64 10.68h-1.805zM197.645 27h-.076l-1.545 4.712h3.152L197.645 27zm9.333 9.272c-.57 0-1.08-.097-1.53-.29s-.826-.472-1.132-.834a3.78 3.78 0 0 1-.704-1.316c-.163-.515-.245-1.09-.245-1.72s.082-1.206.245-1.72a3.78 3.78 0 0 1 .704-1.316c.306-.362.683-.64 1.132-.834s.96-.29 1.53-.29c.796 0 1.448.178 1.958.535s.882.83 1.117 1.423l-1.377.643c-.112-.367-.31-.66-.59-.88s-.65-.33-1.11-.33c-.612 0-1.074.19-1.385.574s-.467.88-.467 1.492v1.423c0 .612.156 1.11.467 1.492s.773.574 1.385.574c.5 0 .88-.12 1.17-.36s.523-.558.696-.956l1.27.673c-.265.653-.663 1.153-1.193 1.5s-1.178.52-1.943.52zm6.93-.184c-.58 0-1.02-.15-1.316-.45s-.444-.727-.444-1.278v-4.865h-1.24v-1.362h.673c.275 0 .467-.06.574-.184s.16-.32.16-.597V25.95h1.5v2.173h1.668v1.362h-1.668v5.233h1.545v1.362h-1.453zm4.223-9.38c-.347 0-.6-.082-.757-.245s-.237-.372-.237-.627v-.26c0-.255.08-.464.237-.627s.41-.245.757-.245.597.082.75.245a.88.88 0 0 1 .23.627v.26a.88.88 0 0 1-.23.627c-.153.163-.403.245-.75.245zm-.84 1.423h1.668v7.956h-1.668v-7.956zm5.783 7.956l-2.708-7.956h1.652l1.21 3.626.81 2.785h.092l.81-2.785 1.24-3.626h1.59l-2.74 7.956h-1.958zm9.226.184c-.57 0-1.08-.097-1.53-.29s-.83-.472-1.148-.834-.558-.8-.727-1.316-.252-1.09-.252-1.72.084-1.206.252-1.72.41-.954.727-1.316.7-.64 1.148-.834.96-.29 1.53-.29c.58 0 1.094.102 1.538.306a3.06 3.06 0 0 1 1.109.849c.296.362.518.783.666 1.262s.222.994.222 1.545v.627h-5.462v.26c0 .612.18 1.114.543 1.507s.88.59 1.553.59c.5 0 .903-.107 1.24-.32a2.8 2.8 0 0 0 .857-.872l.98.964c-.296.5-.724.88-1.285 1.17s-1.214.436-1.958.436zm0-7.023a1.99 1.99 0 0 0-.788.153c-.24.102-.444.245-.612.428s-.298.403-.4.658a2.47 2.47 0 0 0-.138.841v.107h3.703v-.153c0-.612-.158-1.104-.474-1.476s-.75-.558-1.3-.558z" class="j"/></g><g transform="translate(18 258)"><use filter="url(#K)" xlink:href="#J" fill="#000"/><rect x="1.02" y="1.02" width="257.61" height="59.276" rx="8.16" class="e h i"/><g transform="translate(19.38 20.458)"><mask class="e"><use xlink:href="#L"/></mask><use xlink:href="#L" class="f g"/></g><path d="M56.534 36.26c-.898 0-1.66-.163-2.287-.5s-1.165-.765-1.614-1.316l1.193-1.117c.377.46.793.806 1.247 1.04s.972.352 1.553.352c.683 0 1.198-.153 1.545-.46s.52-.72.52-1.24c0-.418-.122-.75-.367-.995s-.678-.428-1.3-.55l-.95-.168c-1.04-.194-1.82-.535-2.34-1.025s-.78-1.163-.78-2.02c0-.47.09-.895.268-1.278a2.68 2.68 0 0 1 .75-.964c.32-.26.71-.462 1.17-.604s.974-.214 1.545-.214c.806 0 1.504.14 2.096.42s1.096.686 1.515 1.216l-1.21 1.07c-.275-.357-.612-.643-1-.857s-.892-.32-1.484-.32c-.612 0-1.086.122-1.423.367s-.505.602-.505 1.07c0 .45.138.783.413 1.002s.704.385 1.285.497l.95.2c1.07.204 1.854.55 2.35 1.04s.742 1.163.742 2.02c0 .5-.087.954-.26 1.362a2.87 2.87 0 0 1-.757 1.048c-.332.29-.737.515-1.216.673s-1.025.237-1.637.237zm8.95 0c-.57 0-1.08-.097-1.53-.29s-.83-.472-1.148-.834-.558-.8-.727-1.316-.252-1.09-.252-1.72.084-1.206.252-1.72.41-.954.727-1.316.7-.64 1.148-.834.96-.29 1.53-.29c.58 0 1.094.102 1.538.306a3.06 3.06 0 0 1 1.109.849c.296.362.518.783.666 1.262s.222.994.222 1.545v.627h-5.462v.26c0 .612.18 1.114.543 1.507s.88.59 1.553.59c.5 0 .903-.107 1.24-.32a2.8 2.8 0 0 0 .857-.872l.98.964c-.296.5-.724.88-1.285 1.17s-1.214.436-1.958.436zm0-7.023a1.99 1.99 0 0 0-.788.153c-.24.102-.444.245-.612.428s-.298.403-.4.658a2.47 2.47 0 0 0-.138.841v.107h3.703v-.153c0-.612-.158-1.104-.474-1.476s-.75-.558-1.3-.558zm5.386 6.84v-7.956h1.668v1.316h.076c.173-.428.436-.785.788-1.07s.834-.428 1.446-.428c.816 0 1.45.268 1.905.803s.68 1.298.68 2.287v5.05h-1.668v-4.835c0-1.244-.5-1.867-1.5-1.867a2.44 2.44 0 0 0-.635.084 1.8 1.8 0 0 0-.558.252c-.163.112-.293.255-.4.428s-.145.377-.145.612v5.324H70.87zm13.877-1.316h-.077c-.173.47-.456.836-.85 1.102s-.854.398-1.385.398c-1 0-1.8-.365-2.34-1.094s-.826-1.752-.826-3.068.275-2.338.826-3.068 1.33-1.094 2.34-1.094c.53 0 .992.13 1.385.4s.676.63.85 1.11h.077v-4.682h1.668v11.322h-1.668v-1.316zm-1.805.06c.5 0 .938-.125 1.285-.375a1.16 1.16 0 0 0 .52-.987v-2.723a1.16 1.16 0 0 0-.52-.987c-.347-.25-.775-.375-1.285-.375-.58 0-1.045.186-1.392.558s-.52.864-.52 1.476v1.377c0 .612.173 1.104.52 1.476s.81.558 1.392.558zm12.546 1.438c-.57 0-1.08-.097-1.53-.29s-.826-.472-1.132-.834a3.78 3.78 0 0 1-.704-1.316c-.163-.515-.245-1.09-.245-1.72s.082-1.206.245-1.72a3.78 3.78 0 0 1 .704-1.316c.306-.362.683-.64 1.132-.834s.96-.29 1.53-.29c.796 0 1.448.178 1.958.535s.882.83 1.117 1.423l-1.377.643c-.112-.367-.31-.66-.59-.88s-.65-.33-1.11-.33c-.612 0-1.074.19-1.385.574s-.467.88-.467 1.492v1.423c0 .612.156 1.11.467 1.492s.773.574 1.385.574c.5 0 .88-.12 1.17-.36s.523-.558.696-.956l1.27.673c-.265.653-.663 1.153-1.193 1.5s-1.178.52-1.943.52zm10.557-.184c-.44 0-.775-.125-1-.375s-.377-.57-.428-.956h-.076c-.153.5-.433.877-.84 1.132s-.903.383-1.484.383c-.826 0-1.46-.214-1.905-.643s-.666-1.005-.666-1.73c0-.796.288-1.392.864-1.8s1.42-.597 2.532-.597h1.438v-.673c0-.5-.133-.867-.398-1.132s-.678-.398-1.24-.398c-.47 0-.852.102-1.147.306a2.74 2.74 0 0 0-.75.78l-.995-.903c.265-.45.637-.82 1.117-1.11s1.107-.436 1.882-.436c1.03 0 1.82.24 2.37.72s.826 1.168.826 2.066v3.993h.84v1.362h-.933zm-3.366-1.086c.52 0 .95-.115 1.285-.344s.505-.538.505-.926v-1.148h-1.408c-1.153 0-1.73.357-1.73 1.07v.275c0 .357.12.625.36.803s.57.268.987.268zm5.936 1.086v-7.956h1.668v1.316h.077c.082-.204.18-.398.298-.58s.26-.344.428-.482a1.86 1.86 0 0 1 .597-.321c.23-.077.497-.115.803-.115.54 0 1.02.133 1.438.398s.724.673.918 1.224h.046a2.33 2.33 0 0 1 .826-1.148c.408-.316.933-.474 1.576-.474.796 0 1.413.268 1.85.803s.658 1.298.658 2.287v5.05h-1.668v-4.85c0-.612-.117-1.074-.352-1.385s-.607-.467-1.117-.467a2.19 2.19 0 0 0-.612.084c-.194.056-.365.14-.513.252a1.28 1.28 0 0 0-.36.428c-.092.173-.138.372-.138.597v5.34h-1.668v-4.85c0-1.234-.484-1.85-1.454-1.85-.204 0-.405.028-.604.084s-.375.14-.528.252-.275.255-.367.428-.138.372-.138.597v5.34h-1.668zm13.495-7.956h1.668v1.316h.076c.173-.48.456-.85.85-1.11s.854-.4 1.385-.4c1 0 1.8.365 2.34 1.094s.826 1.752.826 3.068-.275 2.338-.826 3.068-1.33 1.094-2.34 1.094c-.53 0-.992-.133-1.385-.398s-.676-.632-.85-1.102h-.076v4.376h-1.668V28.122zm3.473 6.7c.58 0 1.045-.186 1.392-.558s.52-.864.52-1.476V31.41c0-.612-.173-1.104-.52-1.476s-.81-.558-1.392-.558c-.5 0-.938.125-1.285.375a1.16 1.16 0 0 0-.52.987v2.723a1.16 1.16 0 0 0 .52.987c.347.25.775.375 1.285.375zm11.414 1.255c-.44 0-.775-.125-1-.375s-.377-.57-.428-.956h-.076c-.153.5-.433.877-.842 1.132s-.903.383-1.484.383c-.826 0-1.46-.214-1.905-.643s-.666-1.005-.666-1.73c0-.796.288-1.392.864-1.8s1.42-.597 2.532-.597h1.438v-.673c0-.5-.133-.867-.398-1.132s-.678-.398-1.24-.398c-.47 0-.852.102-1.147.306a2.74 2.74 0 0 0-.75.78l-.994-.903c.265-.45.637-.82 1.117-1.11s1.107-.436 1.882-.436c1.03 0 1.82.24 2.37.72s.826 1.168.826 2.066v3.993h.84v1.362h-.933zm-3.366-1.086c.52 0 .95-.115 1.285-.344s.505-.538.505-.926v-1.148h-1.408c-1.153 0-1.73.357-1.73 1.07v.275c0 .357.12.625.36.803s.57.268.987.268zm6.778-8.293c-.347 0-.6-.082-.757-.245s-.237-.372-.237-.627v-.26c0-.255.08-.464.237-.627s.41-.245.757-.245.597.082.75.245a.88.88 0 0 1 .23.627v.26a.88.88 0 0 1-.23.627c-.153.163-.403.245-.75.245zm-.84 1.423h1.668v7.956h-1.668v-7.956zm11.03 8.706c0 .826-.316 1.448-.95 1.867s-1.663.627-3.09.627c-.653 0-1.206-.043-1.66-.13s-.826-.212-1.117-.375-.502-.362-.635-.597a1.62 1.62 0 0 1-.199-.811c0-.44.12-.78.36-1.025s.574-.413 1.002-.505v-.168c-.602-.194-.903-.602-.903-1.224 0-.408.138-.722.413-.94s.607-.375.995-.467v-.06c-.47-.224-.83-.538-1.08-.94s-.375-.875-.375-1.415c0-.816.273-1.474.82-1.974s1.33-.75 2.35-.75c.56 0 1.04.082 1.438.245v-.214c0-.357.084-.635.252-.834s.43-.298.788-.298h1.224v1.346h-1.622v.32a2.4 2.4 0 0 1 .826.91 2.66 2.66 0 0 1 .291 1.247c0 .806-.275 1.456-.826 1.95s-1.336.742-2.356.742c-.388 0-.734-.04-1.04-.122a1.71 1.71 0 0 0-.535.298c-.153.128-.23.293-.23.497a.47.47 0 0 0 .291.459c.194.092.47.138.826.138h1.958c.98 0 1.688.196 2.127.59s.658.93.658 1.614zm-1.56.184a.79.79 0 0 0-.314-.658c-.21-.163-.59-.245-1.14-.245h-2.693c-.367.214-.55.52-.55.918 0 .326.13.59.4.788s.7.298 1.323.298h1.04c1.295 0 1.943-.367 1.943-1.102zm-2.494-4.865c.5 0 .87-.1 1.14-.33s.405-.558.405-1.017v-.306c0-.46-.135-.798-.405-1.017s-.65-.33-1.14-.33-.87.1-1.14.33-.405.558-.405 1.017v.306c0 .46.135.798.405 1.017s.65.33 1.14.33zm5.294 3.932v-7.956h1.668v1.316h.077c.173-.428.436-.785.788-1.07s.834-.428 1.446-.428c.816 0 1.45.268 1.905.803s.68 1.298.68 2.287v5.05h-1.668v-4.835c0-1.244-.5-1.867-1.5-1.867a2.44 2.44 0 0 0-.635.084 1.8 1.8 0 0 0-.558.252c-.163.112-.293.255-.4.428s-.145.377-.145.612v5.324h-1.668zm10.052.184c-.377 0-.658-.1-.84-.298s-.275-.446-.275-.742v-.23c0-.296.092-.543.275-.742s.464-.298.84-.298.658.1.84.298.275.446.275.742v.23c0 .296-.092.543-.275.742s-.464.298-.84.298zm0-5.936c-.377 0-.658-.1-.84-.298s-.275-.446-.275-.742v-.23c0-.296.092-.543.275-.742s.464-.298.84-.298.658.1.84.298.275.446.275.742v.23c0 .296-.092.543-.275.742s-.464.298-.84.298zm8.874 5.753l-2.524-10.68h1.76l1.836 8.7h.046l.857-3.55 1.27-5.14h1.928l1.255 5.14.84 3.534h.046l.78-3.534 1.117-5.14h1.698l-2.632 10.68h-1.943l-1.362-5.523-.796-3.244h-.03l-.81 3.244-1.392 5.523h-1.943zm15.59.184c-.57 0-1.08-.097-1.53-.29s-.83-.472-1.148-.834-.558-.8-.727-1.316-.252-1.09-.252-1.72.084-1.206.252-1.72.41-.954.727-1.316.7-.64 1.148-.834.96-.29 1.53-.29c.58 0 1.094.102 1.538.306a3.06 3.06 0 0 1 1.109.849c.296.362.518.783.666 1.262s.222.994.222 1.545v.627h-5.462v.26c0 .612.18 1.114.543 1.507s.88.59 1.553.59c.5 0 .903-.107 1.24-.32a2.8 2.8 0 0 0 .857-.872l.98.964c-.296.5-.724.88-1.285 1.17s-1.214.436-1.958.436zm0-7.023a1.99 1.99 0 0 0-.788.153c-.24.102-.444.245-.612.428s-.298.403-.4.658a2.47 2.47 0 0 0-.138.841v.107h3.703v-.153c0-.612-.158-1.104-.474-1.476s-.75-.558-1.3-.558zm7.084 6.84c-.57 0-.997-.145-1.278-.436s-.42-.696-.42-1.216v-9.67h1.668v9.96h1.102v1.362h-1.07zm5.737.184c-.57 0-1.08-.097-1.53-.29s-.826-.472-1.132-.834a3.78 3.78 0 0 1-.704-1.316c-.163-.515-.245-1.09-.245-1.72s.082-1.206.245-1.72a3.78 3.78 0 0 1 .704-1.316c.306-.362.683-.64 1.132-.834s.96-.29 1.53-.29c.796 0 1.448.178 1.958.535s.882.83 1.117 1.423l-1.377.643c-.112-.367-.31-.66-.59-.88s-.65-.33-1.11-.33c-.612 0-1.074.19-1.385.574s-.467.88-.467 1.492v1.423c0 .612.156 1.11.467 1.492s.773.574 1.385.574c.5 0 .88-.12 1.17-.36s.523-.558.696-.956l1.27.673c-.265.653-.663 1.153-1.193 1.5s-1.178.52-1.943.52zm7.85 0a3.8 3.8 0 0 1-1.507-.291c-.454-.194-.84-.472-1.155-.834s-.56-.8-.734-1.316-.26-1.09-.26-1.72.087-1.206.26-1.72.418-.954.734-1.316.7-.64 1.155-.834a3.8 3.8 0 0 1 1.507-.291 3.8 3.8 0 0 1 1.507.291c.454.194.84.472 1.155.834s.56.8.734 1.316.26 1.09.26 1.72-.087 1.206-.26 1.72-.418.954-.734 1.316-.7.64-1.155.834a3.8 3.8 0 0 1-1.507.291zm0-1.377c.57 0 1.03-.176 1.377-.528s.52-.88.52-1.584v-1.346c0-.704-.173-1.232-.52-1.584s-.806-.528-1.377-.528-1.03.176-1.377.528-.52.88-.52 1.584v1.346c0 .704.173 1.232.52 1.584s.806.528 1.377.528zm5.508 1.193v-7.956h1.668v1.316h.077c.082-.204.18-.398.298-.58s.26-.344.428-.482a1.86 1.86 0 0 1 .597-.321c.23-.077.497-.115.803-.115.54 0 1.02.133 1.438.398s.724.673.918 1.224h.046a2.33 2.33 0 0 1 .826-1.148c.408-.316.933-.474 1.576-.474.796 0 1.413.268 1.85.803s.658 1.298.658 2.287v5.05h-1.668v-4.85c0-.612-.117-1.074-.352-1.385s-.607-.467-1.117-.467a2.19 2.19 0 0 0-.612.084c-.194.056-.365.14-.513.252a1.28 1.28 0 0 0-.36.428c-.092.173-.138.372-.138.597v5.34h-1.668v-4.85c0-1.234-.484-1.85-1.454-1.85-.204 0-.405.028-.604.084s-.375.14-.528.252-.275.255-.367.428-.138.372-.138.597v5.34h-1.668zm16.616.184c-.57 0-1.08-.097-1.53-.29s-.83-.472-1.148-.834-.558-.8-.727-1.316-.252-1.09-.252-1.72.084-1.206.252-1.72.41-.954.727-1.316.7-.64 1.148-.834.96-.29 1.53-.29c.58 0 1.094.102 1.538.306a3.06 3.06 0 0 1 1.109.849c.296.362.518.783.666 1.262s.222.994.222 1.545v.627h-5.462v.26c0 .612.18 1.114.543 1.507s.88.59 1.553.59c.5 0 .903-.107 1.24-.32a2.8 2.8 0 0 0 .857-.872l.98.964c-.296.5-.724.88-1.285 1.17s-1.214.436-1.958.436zm0-7.023a1.99 1.99 0 0 0-.788.153c-.24.102-.444.245-.612.428s-.298.403-.4.658a2.47 2.47 0 0 0-.138.841v.107h3.703v-.153c0-.612-.158-1.104-.474-1.476s-.75-.558-1.3-.558zm6.09 3.78l-.536-4.575v-3.045h1.805v3.045l-.505 4.575h-.765zm.382 3.244c-.388 0-.67-.094-.85-.283s-.268-.43-.268-.727v-.26c0-.296.09-.538.268-.727s.462-.283.85-.283.67.094.85.283.268.43.268.727v.26c0 .296-.09.538-.268.727s-.462.283-.85.283z" class="j"/></g><g transform="translate(0 344)"><use filter="url(#N)" xlink:href="#M" fill="#000"/><use xlink:href="#M" class="g"/><g class="e"><g transform="translate(20.917 20.316)"><mask><use xlink:href="#O"/></mask><use xlink:href="#O" class="f"/></g><path d="M57.43 36.5c-.898 0-1.66-.163-2.287-.5s-1.165-.765-1.614-1.316l1.193-1.117c.377.46.793.806 1.247 1.04s.972.352 1.553.352c.683 0 1.198-.153 1.545-.46s.52-.72.52-1.24c0-.418-.122-.75-.367-.995s-.678-.428-1.3-.55l-.95-.168c-1.04-.194-1.82-.535-2.34-1.025s-.78-1.163-.78-2.02c0-.47.09-.895.268-1.278a2.68 2.68 0 0 1 .75-.964c.32-.26.71-.462 1.17-.604s.974-.214 1.545-.214c.806 0 1.504.14 2.096.42s1.096.686 1.515 1.216l-1.21 1.07c-.275-.357-.612-.643-1-.857s-.892-.32-1.484-.32c-.612 0-1.086.122-1.423.367s-.505.602-.505 1.07c0 .45.138.783.413 1.002s.704.385 1.285.497l.95.2c1.07.204 1.854.55 2.35 1.04s.742 1.163.742 2.02c0 .5-.087.954-.26 1.362a2.87 2.87 0 0 1-.757 1.048c-.332.29-.737.515-1.216.673s-1.025.237-1.637.237zm8.033-.184c-.58 0-1.02-.15-1.316-.45s-.444-.727-.444-1.278V29.72h-1.24V28.36h.673c.275 0 .467-.06.574-.184s.16-.32.16-.597v-1.392h1.5v2.173h1.668v1.362H65.37v5.233h1.545v1.362h-1.453zm9.21 0c-.44 0-.775-.125-1-.375s-.377-.57-.428-.956h-.076c-.153.5-.433.877-.84 1.132s-.903.383-1.484.383c-.826 0-1.46-.214-1.905-.643s-.666-1.005-.666-1.73c0-.796.288-1.392.864-1.8s1.42-.597 2.532-.597h1.438v-.673c0-.5-.133-.867-.398-1.132s-.678-.398-1.24-.398c-.47 0-.852.102-1.147.306a2.74 2.74 0 0 0-.75.78l-.995-.903c.265-.45.637-.82 1.117-1.11s1.107-.436 1.882-.436c1.03 0 1.82.24 2.37.72s.826 1.168.826 2.066v3.993h.842v1.362h-.933zm-3.366-1.086c.52 0 .95-.115 1.285-.344s.505-.538.505-.926v-1.148H71.7c-1.153 0-1.73.357-1.73 1.07v.275c0 .357.12.625.36.803s.57.268.987.268zm5.936 1.086V28.36h1.668v1.53h.076c.112-.408.347-.765.704-1.07s.852-.46 1.484-.46h.444v1.606h-.658c-.663 0-1.17.107-1.522.32a1.04 1.04 0 0 0-.528.949v5.08h-1.668zm8.063 0c-.58 0-1.02-.15-1.316-.45s-.444-.727-.444-1.278V29.72h-1.24V28.36h.673c.275 0 .467-.06.574-.184s.16-.32.16-.597v-1.392h1.5v2.173h1.668v1.362h-1.668v5.233h1.545v1.362h-1.454zm13.785 0l-.964-2.892h-3.993l-.933 2.892h-1.76l3.64-10.68h2.173l3.64 10.68h-1.805zm-2.922-9.088h-.076l-1.545 4.712H97.7l-1.53-4.712zM107.247 35h-.06c-.07.194-.166.382-.283.566s-.265.344-.444.482a2.12 2.12 0 0 1-.643.329c-.25.082-.538.122-.864.122-.826 0-1.466-.265-1.92-.796s-.68-1.3-.68-2.28V28.36h1.668v4.85c0 1.234.5 1.85 1.53 1.85.214 0 .423-.028.627-.084s.385-.14.543-.252a1.29 1.29 0 0 0 .383-.428c.097-.173.145-.377.145-.612V28.36h1.668v7.956h-1.668V35zm6.258 1.316c-.58 0-1.02-.15-1.316-.45s-.444-.727-.444-1.278V29.72h-1.24V28.36h.673c.275 0 .467-.06.574-.184s.16-.32.16-.597v-1.392h1.5v2.173h1.668v1.362h-1.668v5.233h1.545v1.362h-1.454zm6.502.184a3.8 3.8 0 0 1-1.507-.291c-.454-.194-.84-.472-1.155-.834s-.56-.8-.734-1.316-.26-1.09-.26-1.72.087-1.206.26-1.72.418-.954.734-1.316.7-.64 1.155-.834a3.8 3.8 0 0 1 1.507-.291 3.8 3.8 0 0 1 1.507.291c.454.194.84.472 1.155.834s.56.8.734 1.316.26 1.09.26 1.72-.087 1.206-.26 1.72-.418.954-.734 1.316-.7.64-1.155.834a3.8 3.8 0 0 1-1.507.291zm0-1.377c.57 0 1.03-.176 1.377-.528s.52-.88.52-1.584v-1.346c0-.704-.173-1.232-.52-1.584s-.806-.528-1.377-.528-1.03.176-1.377.528-.52.88-.52 1.584v1.346c0 .704.173 1.232.52 1.584s.806.528 1.377.528zm5.508 1.193V28.36h1.668v1.316h.076c.082-.204.18-.398.298-.58s.26-.344.428-.482a1.86 1.86 0 0 1 .597-.321c.23-.077.497-.115.803-.115.54 0 1.02.133 1.438.398s.724.673.918 1.224h.046a2.33 2.33 0 0 1 .826-1.148c.408-.316.933-.474 1.576-.474.796 0 1.413.268 1.85.803s.658 1.298.658 2.287v5.05h-1.668v-4.85c0-.612-.117-1.074-.352-1.385s-.607-.467-1.117-.467a2.19 2.19 0 0 0-.612.084c-.194.056-.365.14-.513.252a1.28 1.28 0 0 0-.36.428c-.092.173-.138.372-.138.597v5.34h-1.668v-4.85c0-1.234-.484-1.85-1.454-1.85-.204 0-.405.028-.604.084s-.375.14-.528.252-.275.255-.367.428-.138.372-.138.597v5.34h-1.668zm19.324 0c-.44 0-.775-.125-1-.375s-.377-.57-.428-.956h-.077c-.153.5-.433.877-.84 1.132s-.903.383-1.484.383c-.826 0-1.46-.214-1.905-.643s-.666-1.005-.666-1.73c0-.796.288-1.392.864-1.8s1.42-.597 2.532-.597h1.438v-.673c0-.5-.133-.867-.398-1.132s-.678-.398-1.24-.398c-.47 0-.852.102-1.148.306a2.74 2.74 0 0 0-.75.78l-.995-.903c.265-.45.637-.82 1.117-1.11s1.107-.436 1.882-.436c1.03 0 1.82.24 2.37.72s.826 1.168.826 2.066v3.993h.84v1.362h-.933zm-3.366-1.086c.52 0 .95-.115 1.285-.344s.505-.538.505-.926v-1.148h-1.408c-1.153 0-1.73.357-1.73 1.07v.275c0 .357.12.625.36.803s.57.268.987.268zm8.14 1.086c-.58 0-1.02-.15-1.316-.45s-.444-.727-.444-1.278V29.72h-1.24V28.36h.673c.275 0 .467-.06.574-.184s.16-.32.16-.597v-1.392h1.5v2.173h1.668v1.362h-1.668v5.233h1.545v1.362h-1.454zm4.223-9.38c-.347 0-.6-.082-.757-.245s-.237-.372-.237-.627v-.26c0-.255.08-.464.237-.627s.41-.245.757-.245.597.082.75.245a.88.88 0 0 1 .23.627v.26a.88.88 0 0 1-.23.627c-.153.163-.403.245-.75.245zm-.84 1.423h1.668v7.956h-1.668V28.36zm7.176 8.14a3.8 3.8 0 0 1-1.507-.291c-.454-.194-.84-.472-1.155-.834s-.56-.8-.734-1.316-.26-1.09-.26-1.72.087-1.206.26-1.72.418-.954.734-1.316.7-.64 1.155-.834a3.8 3.8 0 0 1 1.507-.291 3.8 3.8 0 0 1 1.507.291c.454.194.84.472 1.155.834s.56.8.734 1.316.26 1.09.26 1.72-.087 1.206-.26 1.72-.418.954-.734 1.316-.7.64-1.155.834a3.8 3.8 0 0 1-1.507.291zm0-1.377c.57 0 1.03-.176 1.377-.528s.52-.88.52-1.584v-1.346c0-.704-.173-1.232-.52-1.584s-.806-.528-1.377-.528-1.03.176-1.377.528-.52.88-.52 1.584v1.346c0 .704.173 1.232.52 1.584s.806.528 1.377.528zm5.508 1.193V28.36h1.668v1.316h.076c.173-.428.436-.785.788-1.07s.834-.428 1.446-.428c.816 0 1.45.268 1.905.803s.68 1.298.68 2.287v5.05h-1.668V31.48c0-1.244-.5-1.867-1.5-1.867a2.44 2.44 0 0 0-.635.084 1.8 1.8 0 0 0-.558.252c-.163.112-.293.255-.4.428s-.145.377-.145.612v5.324h-1.668zm10.052.184c-.377 0-.658-.1-.842-.298s-.275-.446-.275-.742v-.23c0-.296.092-.543.275-.742s.464-.298.842-.298.658.1.84.298.275.446.275.742v.23c0 .296-.092.543-.275.742s-.464.298-.84.298zm0-5.936c-.377 0-.658-.1-.842-.298s-.275-.446-.275-.742v-.23c0-.296.092-.543.275-.742s.464-.298.842-.298.658.1.84.298.275.446.275.742v.23c0 .296-.092.543-.275.742s-.464.298-.84.298zm7.298 5.753v-10.68h1.73v9.15h4.345v1.53h-6.074zm10.848.184c-.57 0-1.08-.097-1.53-.29s-.83-.472-1.147-.834-.558-.8-.727-1.316-.252-1.09-.252-1.72.084-1.206.252-1.72.41-.954.727-1.316.7-.64 1.147-.834.96-.29 1.53-.29c.58 0 1.094.102 1.538.306a3.06 3.06 0 0 1 1.109.849c.296.362.518.783.666 1.262s.222.994.222 1.545v.627h-5.462v.26c0 .612.18 1.114.543 1.507s.88.59 1.553.59c.5 0 .903-.107 1.24-.32a2.8 2.8 0 0 0 .857-.872l.98.964c-.296.5-.724.88-1.285 1.17s-1.214.436-1.958.436zm0-7.023a1.99 1.99 0 0 0-.788.153c-.24.102-.444.245-.612.428s-.298.403-.4.658a2.47 2.47 0 0 0-.138.841v.107h3.703v-.153c0-.612-.158-1.104-.474-1.476s-.75-.558-1.3-.558zm11.215 6.84c-.44 0-.775-.125-1-.375s-.377-.57-.428-.956h-.077c-.153.5-.433.877-.84 1.132s-.903.383-1.484.383c-.826 0-1.46-.214-1.905-.643s-.666-1.005-.666-1.73c0-.796.288-1.392.864-1.8s1.42-.597 2.532-.597h1.438v-.673c0-.5-.133-.867-.398-1.132s-.678-.398-1.24-.398c-.47 0-.852.102-1.148.306a2.74 2.74 0 0 0-.75.78l-.994-.903c.265-.45.637-.82 1.117-1.11s1.107-.436 1.882-.436c1.03 0 1.82.24 2.37.72s.826 1.168.826 2.066v3.993h.84v1.362h-.933zm-3.366-1.086c.52 0 .95-.115 1.285-.344s.505-.538.505-.926v-1.148h-1.408c-1.153 0-1.73.357-1.73 1.07v.275c0 .357.12.625.36.803s.57.268.987.268zm10.94-.23h-.076c-.173.47-.456.836-.85 1.102s-.854.398-1.385.398c-1 0-1.8-.365-2.34-1.094s-.826-1.752-.826-3.068.275-2.338.826-3.068 1.33-1.094 2.34-1.094c.53 0 .992.13 1.385.4s.676.63.85 1.11h.076v-4.682h1.668v11.322h-1.668V35zm-1.805.06c.5 0 .938-.125 1.285-.375a1.16 1.16 0 0 0 .52-.987v-2.723a1.16 1.16 0 0 0-.52-.987c-.347-.25-.775-.375-1.285-.375-.58 0-1.045.186-1.392.558s-.52.864-.52 1.476v1.377c0 .612.173 1.104.52 1.476s.81.558 1.392.558zm12.47-4.65l-1.178-2.264h-.046v8.17h-1.652v-10.68h1.928l3.488 5.906 1.178 2.264h.046v-8.17h1.652v10.68h-1.928l-3.488-5.906zm12.745 4.6h-.06c-.07.194-.166.382-.283.566s-.265.344-.444.482a2.12 2.12 0 0 1-.643.329c-.25.082-.538.122-.864.122-.826 0-1.466-.265-1.92-.796s-.68-1.3-.68-2.28V28.36h1.668v4.85c0 1.234.5 1.85 1.53 1.85.214 0 .423-.028.627-.084s.385-.14.543-.252a1.29 1.29 0 0 0 .382-.428c.097-.173.145-.377.145-.612V28.36h1.668v7.956h-1.668V35zm4.054 1.316V28.36h1.668v1.53h.077c.112-.408.347-.765.704-1.07s.852-.46 1.484-.46h.444v1.606h-.658c-.663 0-1.17.107-1.522.32a1.04 1.04 0 0 0-.528.949v5.08h-1.668zm8.063 0c-.58 0-1.02-.15-1.316-.45s-.444-.727-.444-1.278V29.72h-1.24V28.36h.673c.275 0 .467-.06.574-.184s.16-.32.16-.597v-1.392h1.5v2.173h1.668v1.362H248.1v5.233h1.545v1.362h-1.454zm8.2-1.316h-.06c-.07.194-.166.382-.283.566s-.265.344-.444.482a2.12 2.12 0 0 1-.643.329c-.25.082-.538.122-.864.122-.826 0-1.466-.265-1.92-.796s-.68-1.3-.68-2.28V28.36h1.668v4.85c0 1.234.5 1.85 1.53 1.85.214 0 .423-.028.627-.084s.385-.14.543-.252a1.29 1.29 0 0 0 .382-.428c.097-.173.145-.377.145-.612V28.36h1.668v7.956h-1.668V35zm4.055 1.316V28.36h1.668v1.53h.077c.112-.408.347-.765.704-1.07s.852-.46 1.484-.46h.444v1.606h-.658c-.663 0-1.17.107-1.522.32a1.04 1.04 0 0 0-.528.949v5.08h-1.668zm8.98.184c-.57 0-1.08-.097-1.53-.29s-.83-.472-1.148-.834-.558-.8-.727-1.316-.252-1.09-.252-1.72.084-1.206.252-1.72.41-.954.727-1.316.7-.64 1.148-.834.96-.29 1.53-.29c.58 0 1.094.102 1.538.306a3.06 3.06 0 0 1 1.109.849c.296.362.518.783.666 1.262s.222.994.222 1.545v.627H267.5v.26c0 .612.18 1.114.543 1.507s.88.59 1.553.59c.5 0 .903-.107 1.24-.32a2.8 2.8 0 0 0 .857-.872l.98.964c-.296.5-.724.88-1.285 1.17s-1.214.436-1.958.436zm0-7.023a1.99 1.99 0 0 0-.788.153c-.24.102-.444.245-.612.428s-.298.403-.4.658a2.47 2.47 0 0 0-.138.841v.107h3.703v-.153c0-.612-.158-1.104-.474-1.476s-.75-.558-1.3-.558z"/></g></g></g></g></svg>