<svg xmlns="http://www.w3.org/2000/svg" xmlns:xlink="http://www.w3.org/1999/xlink" width="347" height="343"><style><![CDATA[.Q{fill:#fff}.R{fill:#FF8730}.S{fill-rule:nonzero}.T{stroke:#E3EBFC}.U{stroke-width:2.04}.V{fill:#5F667E}]]></style><defs><rect id="A" width="276" height="61.316" rx="8.16" y="0"/><filter x="-7.2%" y="-26.1%" width="114.5%" height="165.2%" id="B"><feOffset dy="4" in="SourceAlpha"/><feGaussianBlur stdDeviation="6"/><feComposite in2="SourceAlpha" operator="out"/><feColorMatrix values="0 0 0 0 0.207843137 0 0 0 0 0.415686275 0 0 0 0 0.901960784 0 0 0 0.12 0"/></filter><path d="M9.79 11.307l4.04 7.93-2.272 1.158-4.06-7.97-4.948 5.632V0l15.3 10.317-8.06 1z" id="C"/><rect id="D" width="248.65" height="61.316" rx="8.16" y="0"/><filter x="-8.0%" y="-26.1%" width="116.1%" height="165.2%" id="E"><feOffset dy="4" in="SourceAlpha"/><feGaussianBlur stdDeviation="6"/><feComposite in2="SourceAlpha" operator="out"/><feColorMatrix values="0 0 0 0 0.207843137 0 0 0 0 0.415686275 0 0 0 0 0.901960784 0 0 0 0.12 0"/></filter><path d="M7.65-.85h3.4l3.4 4.25v15.3H4.25V3.4l3.4-4.25zm1.7 8.5a1.7 1.7 0 1 0 0-3.4 1.7 1.7 0 1 0 0 3.4z" id="F"/><rect id="G" width="323.65" height="61.316" rx="8.16" y="0"/><filter x="-6.2%" y="-26.1%" width="112.4%" height="165.2%" id="H"><feOffset dy="4" in="SourceAlpha"/><feGaussianBlur stdDeviation="6"/><feColorMatrix values="0 0 0 0 0.207843137 0 0 0 0 0.415686275 0 0 0 0 0.901960784 0 0 0 0.12 0"/></filter><path d="M1.02 0A1.1 1.1 0 0 0 0 1.02v18.105C0 19.9.5 20.4 1.02 20.4h9.7v-7.905H8.16v-3.06h2.55V7.14c0-2.55 1.53-4.08 4.08-4.08h2.295v2.805h-1.53c-1.275 0-1.53.5-1.53 1.53v2.04h3.06l-.255 3.06h-2.55V20.4h5.1a1.1 1.1 0 0 0 1.02-1.02V1.02A1.1 1.1 0 0 0 19.38 0H1.02z" id="I"/><rect id="J" width="186.65" height="61.316" rx="8.16" y="0"/><filter x="-10.7%" y="-26.1%" width="121.4%" height="165.2%" id="K"><feOffset dy="4" in="SourceAlpha"/><feGaussianBlur stdDeviation="6"/><feComposite in2="SourceAlpha" operator="out"/><feColorMatrix values="0 0 0 0 0.207843137 0 0 0 0 0.415686275 0 0 0 0 0.901960784 0 0 0 0.12 0"/></filter><path d="M11.127 10.2L15.3 6.027l-.927-.927L10.2 9.273 6.027 5.1l-.927.927L9.273 10.2 5.1 14.373l.927.927 4.173-4.173 4.173 4.173.927-.927-4.173-4.173zM10.2 0c5.6 0 10.2 4.6 10.2 10.2s-4.6 10.2-10.2 10.2S0 15.8 0 10.2 4.6 0 10.2 0z" id="L"/></defs><g transform="translate(12 8)" fill="none"><path d="M160 26h2.042v292.452H160z" class="R S"/><g transform="translate(24)"><use filter="url(#B)" xlink:href="#A" fill="#000"/><rect x="1.02" y="1.02" width="273.96" height="59.276" rx="8.16" class="Q T U"/><g transform="translate(19.38 20.458)"><mask class="Q"><use xlink:href="#C"/></mask><use xlink:href="#C" class="R S"/></g><path d="M57.3 26.928v9.15h-1.73v-9.15h-3.182v-1.53h8.094v1.53H57.3zm4.743 9.15v-7.956h1.668v1.53h.076c.112-.408.347-.765.704-1.07s.852-.46 1.484-.46h.444v1.607h-.658c-.663 0-1.17.107-1.522.32a1.04 1.04 0 0 0-.528.949v5.08h-1.668zm6.7-9.38c-.347 0-.6-.082-.757-.245s-.237-.372-.237-.627v-.26c0-.255.08-.464.237-.627s.41-.245.757-.245.597.082.75.245a.88.88 0 0 1 .23.627v.26a.88.88 0 0 1-.23.627c-.153.163-.403.245-.75.245zm-.842 1.423h1.668v7.956H67.9v-7.956zm11.03 8.706c0 .826-.316 1.448-.95 1.867s-1.663.627-3.09.627c-.653 0-1.206-.043-1.66-.13s-.826-.212-1.117-.375-.502-.362-.635-.597a1.62 1.62 0 0 1-.199-.811c0-.44.12-.78.36-1.025s.574-.413 1.002-.505v-.168c-.602-.194-.903-.602-.903-1.224 0-.408.138-.722.413-.94s.607-.375.995-.467v-.06c-.47-.224-.83-.538-1.08-.94s-.375-.875-.375-1.415c0-.816.273-1.474.82-1.974s1.33-.75 2.35-.75c.56 0 1.04.082 1.438.245v-.214c0-.357.084-.635.252-.834s.43-.298.788-.298h1.224v1.346h-1.622v.32a2.4 2.4 0 0 1 .826.91 2.66 2.66 0 0 1 .291 1.247c0 .806-.275 1.456-.826 1.95s-1.336.742-2.356.742c-.388 0-.734-.04-1.04-.122a1.71 1.71 0 0 0-.535.298c-.153.128-.23.293-.23.497a.47.47 0 0 0 .291.459c.194.092.47.138.826.138h1.958c.98 0 1.688.196 2.127.59s.658.93.658 1.614zm-1.56.184a.79.79 0 0 0-.314-.658c-.21-.163-.59-.245-1.14-.245h-2.693c-.367.214-.55.52-.55.918 0 .326.13.59.4.788s.7.298 1.323.298h1.04c1.295 0 1.943-.367 1.943-1.102zm-2.494-4.865c.5 0 .87-.1 1.14-.33s.405-.558.405-1.017v-.306c0-.46-.135-.798-.405-1.017s-.65-.33-1.14-.33-.87.1-1.14.33-.405.558-.405 1.017v.306c0 .46.135.798.405 1.017s.65.33 1.14.33zm12.27 4.682c0 .826-.316 1.448-.95 1.867s-1.663.627-3.09.627c-.653 0-1.206-.043-1.66-.13s-.826-.212-1.117-.375-.502-.362-.635-.597a1.62 1.62 0 0 1-.199-.811c0-.44.12-.78.36-1.025s.574-.413 1.002-.505v-.168c-.602-.194-.903-.602-.903-1.224 0-.408.138-.722.413-.94s.607-.375.994-.467v-.06c-.47-.224-.83-.538-1.08-.94s-.375-.875-.375-1.415c0-.816.273-1.474.82-1.974s1.33-.75 2.35-.75c.56 0 1.04.082 1.438.245v-.214c0-.357.084-.635.252-.834s.43-.298.788-.298h1.224v1.346H85.16v.32a2.4 2.4 0 0 1 .826.91 2.66 2.66 0 0 1 .291 1.247c0 .806-.275 1.456-.826 1.95s-1.336.742-2.356.742c-.388 0-.734-.04-1.04-.122a1.71 1.71 0 0 0-.535.298c-.153.128-.23.293-.23.497a.47.47 0 0 0 .291.459c.194.092.47.138.826.138h1.958c.98 0 1.688.196 2.127.59s.658.93.658 1.614zm-1.56.184a.79.79 0 0 0-.314-.658c-.21-.163-.59-.245-1.14-.245h-2.693c-.367.214-.55.52-.55.918 0 .326.13.59.4.788s.7.298 1.323.298h1.04c1.295 0 1.943-.367 1.943-1.102zm-2.494-4.865c.5 0 .87-.1 1.14-.33s.405-.558.405-1.017v-.306c0-.46-.135-.798-.405-1.017s-.65-.33-1.14-.33-.87.1-1.14.33-.405.558-.405 1.017v.306c0 .46.135.798.405 1.017s.65.33 1.14.33zm8.415 4.116c-.57 0-1.08-.097-1.53-.29s-.83-.472-1.147-.834-.558-.8-.727-1.316-.252-1.09-.252-1.72.084-1.206.252-1.72.41-.954.727-1.316.7-.64 1.147-.834.96-.29 1.53-.29c.58 0 1.094.102 1.538.306a3.06 3.06 0 0 1 1.109.849c.296.362.518.783.666 1.262s.222.994.222 1.545v.627h-5.462v.26c0 .612.18 1.114.543 1.507s.88.59 1.553.59c.5 0 .903-.107 1.24-.32a2.8 2.8 0 0 0 .857-.872l.98.964c-.296.5-.724.88-1.285 1.17s-1.214.436-1.958.436zm0-7.023a1.99 1.99 0 0 0-.788.153c-.24.102-.444.245-.612.428s-.298.403-.4.658a2.47 2.47 0 0 0-.138.841v.107h3.703v-.153c0-.612-.158-1.104-.474-1.476s-.75-.558-1.3-.558zm5.386 6.84v-7.956h1.668v1.53h.076c.112-.408.347-.765.704-1.07s.852-.46 1.484-.46h.444v1.607h-.658c-.663 0-1.17.107-1.522.32a1.04 1.04 0 0 0-.528.949v5.08h-1.668zm7.038.184c-.377 0-.658-.1-.842-.298s-.275-.446-.275-.742v-.23c0-.296.092-.543.275-.742s.464-.298.842-.298.658.1.84.298.275.446.275.742v.23c0 .296-.092.543-.275.742s-.464.298-.84.298zm0-5.936c-.377 0-.658-.1-.842-.298s-.275-.446-.275-.742v-.23c0-.296.092-.543.275-.742s.464-.298.842-.298.658.1.84.298.275.446.275.742v.23c0 .296-.092.543-.275.742s-.464.298-.84.298zm9.76 5.753l-3.504-10.68h1.8l1.698 5.28 1.025 3.718h.06l1.04-3.718 1.698-5.28h1.744l-3.55 10.68h-2.004zm7.864-9.38c-.347 0-.6-.082-.757-.245s-.237-.372-.237-.627v-.26c0-.255.08-.464.237-.627s.41-.245.757-.245.597.082.75.245a.88.88 0 0 1 .23.627v.26a.88.88 0 0 1-.23.627c-.153.163-.403.245-.75.245zm-.84 1.423h1.668v7.956h-1.668v-7.956zm6.58 8.14c-.755 0-1.387-.133-1.897-.398a4.16 4.16 0 0 1-1.331-1.102l1.07-.98a3.43 3.43 0 0 0 .987.834c.362.2.783.298 1.262.298.5 0 .854-.094 1.094-.283s.36-.45.36-.788c0-.255-.084-.472-.252-.65s-.462-.293-.88-.344l-.734-.092c-.816-.102-1.456-.34-1.92-.71s-.696-.926-.696-1.66c0-.388.07-.732.214-1.033s.344-.556.604-.765a2.79 2.79 0 0 1 .933-.482c.362-.112.762-.168 1.2-.168.714 0 1.298.112 1.752.337s.86.535 1.216.933l-1.025.98c-.204-.245-.472-.456-.803-.635s-.71-.268-1.14-.268c-.46 0-.798.092-1.017.275s-.33.423-.33.72c0 .306.097.535.29.688s.505.265.933.337l.734.092c.877.133 1.517.4 1.92.773s.604.895.604 1.538a2.41 2.41 0 0 1-.222 1.048 2.3 2.3 0 0 1-.635.803c-.275.224-.607.398-.995.52s-.82.184-1.3.184zm5.875-9.562c-.347 0-.6-.082-.757-.245s-.237-.372-.237-.627v-.26c0-.255.08-.464.237-.627s.41-.245.757-.245.597.082.75.245a.88.88 0 0 1 .23.627v.26a.88.88 0 0 1-.23.627c-.153.163-.403.245-.75.245zm-.84 1.423h1.668v7.956h-1.668v-7.956zm6.258 7.956c-.58 0-1.02-.15-1.316-.45s-.444-.727-.444-1.278v-4.865h-1.24v-1.362h.673c.275 0 .467-.06.574-.184s.16-.32.16-.597V25.95h1.5v2.173h1.668v1.362h-1.668v5.233h1.545v1.362h-1.453zm6.502.184c-.57 0-1.08-.097-1.53-.29s-.83-.472-1.148-.834-.558-.8-.727-1.316-.252-1.09-.252-1.72.084-1.206.252-1.72.41-.954.727-1.316.7-.64 1.148-.834.96-.29 1.53-.29c.58 0 1.094.102 1.538.306a3.06 3.06 0 0 1 1.109.849c.296.362.518.783.666 1.262s.222.994.222 1.545v.627h-5.462v.26c0 .612.18 1.114.543 1.507s.88.59 1.553.59c.5 0 .903-.107 1.24-.32a2.8 2.8 0 0 0 .857-.872l.98.964c-.296.5-.724.88-1.285 1.17s-1.214.436-1.958.436zm0-7.023a1.99 1.99 0 0 0-.788.153c-.24.102-.444.245-.612.428s-.298.403-.4.658a2.47 2.47 0 0 0-.138.841v.107h3.703v-.153c0-.612-.158-1.104-.474-1.476s-.75-.558-1.3-.558zm10.39 5.523h-.077c-.173.47-.456.836-.85 1.102s-.854.398-1.385.398c-1 0-1.8-.365-2.34-1.094S150 33.416 150 32.1s.275-2.338.826-3.068 1.33-1.094 2.34-1.094c.53 0 .992.13 1.385.4s.676.63.85 1.11h.077v-4.682h1.668v11.322h-1.668v-1.316zm-1.805.06c.5 0 .938-.125 1.285-.375a1.16 1.16 0 0 0 .52-.987v-2.723a1.16 1.16 0 0 0-.52-.987c-.347-.25-.775-.375-1.285-.375-.58 0-1.045.186-1.392.558s-.52.864-.52 1.476v1.377c0 .612.173 1.104.52 1.476s.81.558 1.392.558zm9.47-6.7h1.668v1.316h.077c.173-.48.456-.85.85-1.11s.854-.4 1.385-.4c1 0 1.8.365 2.34 1.094s.826 1.752.826 3.068-.275 2.338-.826 3.068-1.33 1.094-2.34 1.094c-.53 0-.992-.133-1.385-.398s-.676-.632-.85-1.102h-.077v4.376h-1.668V28.122zm3.473 6.7c.58 0 1.045-.186 1.392-.558s.52-.864.52-1.476V31.41c0-.612-.173-1.104-.52-1.476s-.81-.558-1.392-.558c-.5 0-.938.125-1.285.375a1.16 1.16 0 0 0-.52.987v2.723a1.16 1.16 0 0 0 .52.987c.347.25.775.375 1.285.375zm5.585 1.255v-7.956h1.668v1.53h.076c.112-.408.347-.765.704-1.07s.852-.46 1.484-.46h.444v1.607h-.658c-.663 0-1.17.107-1.522.32a1.04 1.04 0 0 0-.528.949v5.08h-1.668zm8.98.184a3.8 3.8 0 0 1-1.507-.291c-.454-.194-.84-.472-1.155-.834s-.56-.8-.734-1.316-.26-1.09-.26-1.72.087-1.206.26-1.72.418-.954.734-1.316.7-.64 1.155-.834a3.8 3.8 0 0 1 1.507-.291 3.8 3.8 0 0 1 1.507.291c.454.194.84.472 1.155.834s.56.8.734 1.316.26 1.09.26 1.72-.087 1.206-.26 1.72-.418.954-.734 1.316-.7.64-1.155.834a3.8 3.8 0 0 1-1.507.291zm0-1.377c.57 0 1.03-.176 1.377-.528s.52-.88.52-1.584v-1.346c0-.704-.173-1.232-.52-1.584s-.806-.528-1.377-.528-1.03.176-1.377.528-.52.88-.52 1.584v1.346c0 .704.173 1.232.52 1.584s.806.528 1.377.528zm10.51-.122h-.077c-.173.47-.456.836-.85 1.102s-.854.398-1.385.398c-1 0-1.8-.365-2.34-1.094s-.826-1.752-.826-3.068.275-2.338.826-3.068 1.33-1.094 2.34-1.094c.53 0 .992.13 1.385.4s.676.63.85 1.11h.077v-4.682h1.668v11.322h-1.668v-1.316zm-1.805.06c.5 0 .938-.125 1.285-.375a1.16 1.16 0 0 0 .52-.987v-2.723a1.16 1.16 0 0 0-.52-.987c-.347-.25-.775-.375-1.285-.375-.58 0-1.045.186-1.392.558s-.52.864-.52 1.476v1.377c0 .612.173 1.104.52 1.476s.81.558 1.392.558zm10.68-.06h-.06c-.07.194-.166.382-.283.566s-.265.344-.444.482a2.12 2.12 0 0 1-.643.329c-.25.082-.538.122-.864.122-.826 0-1.466-.265-1.92-.796s-.68-1.3-.68-2.28v-5.064h1.668v4.85c0 1.234.5 1.85 1.53 1.85.214 0 .423-.028.627-.084s.385-.14.543-.252a1.29 1.29 0 0 0 .382-.428c.097-.173.145-.377.145-.612v-5.324h1.668v7.956h-1.668v-1.316zm7.13 1.5c-.57 0-1.08-.097-1.53-.29s-.826-.472-1.132-.834a3.78 3.78 0 0 1-.704-1.316c-.163-.515-.245-1.09-.245-1.72s.082-1.206.245-1.72a3.78 3.78 0 0 1 .704-1.316c.306-.362.683-.64 1.132-.834s.96-.29 1.53-.29c.796 0 1.448.178 1.958.535s.882.83 1.117 1.423l-1.377.643c-.112-.367-.31-.66-.59-.88s-.65-.33-1.11-.33c-.612 0-1.074.19-1.385.574s-.467.88-.467 1.492v1.423c0 .612.156 1.11.467 1.492s.773.574 1.385.574c.5 0 .88-.12 1.17-.36s.523-.558.696-.956l1.27.673c-.265.653-.663 1.153-1.193 1.5s-1.178.52-1.943.52zm6.93-.184c-.58 0-1.02-.15-1.316-.45s-.444-.727-.444-1.278v-4.865h-1.24v-1.362h.673c.275 0 .467-.06.574-.184s.16-.32.16-.597V25.95h1.5v2.173h1.668v1.362h-1.668v5.233h1.545v1.362h-1.453zm6.992-7.956h1.668v1.316h.077c.173-.48.456-.85.85-1.11s.854-.4 1.385-.4c1 0 1.8.365 2.34 1.094s.826 1.752.826 3.068-.275 2.338-.826 3.068-1.33 1.094-2.34 1.094c-.53 0-.992-.133-1.385-.398s-.676-.632-.85-1.102h-.077v4.376h-1.668V28.122zm3.473 6.7c.58 0 1.045-.186 1.392-.558s.52-.864.52-1.476V31.41c0-.612-.173-1.104-.52-1.476s-.81-.558-1.392-.558c-.5 0-.938.125-1.285.375a1.16 1.16 0 0 0-.52.987v2.723a1.16 1.16 0 0 0 .52.987c.347.25.775.375 1.285.375zm11.414 1.255c-.44 0-.775-.125-1-.375s-.377-.57-.428-.956h-.076c-.153.5-.433.877-.842 1.132s-.903.383-1.484.383c-.826 0-1.46-.214-1.905-.643s-.666-1.005-.666-1.73c0-.796.288-1.392.864-1.8s1.42-.597 2.532-.597h1.438v-.673c0-.5-.133-.867-.398-1.132s-.678-.398-1.24-.398c-.47 0-.852.102-1.148.306a2.74 2.74 0 0 0-.75.78l-.994-.903c.265-.45.637-.82 1.117-1.11s1.107-.436 1.882-.436c1.03 0 1.82.24 2.37.72s.826 1.168.826 2.066v3.993h.84v1.362h-.933zm-3.366-1.086c.52 0 .95-.115 1.285-.344s.505-.538.505-.926v-1.148h-1.408c-1.153 0-1.73.357-1.73 1.07v.275c0 .357.12.625.36.803s.57.268.987.268zm12.913 1.836c0 .826-.316 1.448-.95 1.867s-1.663.627-3.09.627c-.653 0-1.206-.043-1.66-.13s-.826-.212-1.117-.375-.502-.362-.635-.597a1.62 1.62 0 0 1-.199-.811c0-.44.12-.78.36-1.025s.574-.413 1.002-.505v-.168c-.602-.194-.903-.602-.903-1.224 0-.408.138-.722.413-.94s.607-.375.994-.467v-.06c-.47-.224-.83-.538-1.08-.94s-.375-.875-.375-1.415c0-.816.273-1.474.82-1.974s1.33-.75 2.35-.75c.56 0 1.04.082 1.438.245v-.214c0-.357.084-.635.252-.834s.43-.298.788-.298h1.224v1.346h-1.622v.32a2.4 2.4 0 0 1 .826.91 2.66 2.66 0 0 1 .291 1.247c0 .806-.275 1.456-.826 1.95s-1.336.742-2.356.742c-.388 0-.734-.04-1.04-.122a1.71 1.71 0 0 0-.535.298c-.153.128-.23.293-.23.497a.47.47 0 0 0 .291.459c.194.092.47.138.826.138h1.958c.98 0 1.688.196 2.127.59s.658.93.658 1.614zm-1.56.184a.79.79 0 0 0-.314-.658c-.21-.163-.59-.245-1.14-.245h-2.693c-.367.214-.55.52-.55.918 0 .326.13.59.4.788s.7.298 1.323.298h1.04c1.295 0 1.943-.367 1.943-1.102zM242 32.146c.5 0 .87-.1 1.14-.33s.405-.558.405-1.017v-.306c0-.46-.135-.798-.405-1.017s-.65-.33-1.14-.33-.87.1-1.14.33-.405.558-.405 1.017v.306c0 .46.135.798.405 1.017s.65.33 1.14.33zm8.415 4.116c-.57 0-1.08-.097-1.53-.29s-.83-.472-1.148-.834-.558-.8-.727-1.316-.252-1.09-.252-1.72.084-1.206.252-1.72.41-.954.727-1.316.7-.64 1.148-.834.96-.29 1.53-.29c.58 0 1.094.102 1.538.306a3.06 3.06 0 0 1 1.109.849c.296.362.518.783.666 1.262s.222.994.222 1.545v.627h-5.462v.26c0 .612.18 1.114.543 1.507s.88.59 1.553.59c.5 0 .903-.107 1.24-.32a2.8 2.8 0 0 0 .857-.872l.98.964c-.296.5-.724.88-1.285 1.17s-1.214.436-1.958.436zm0-7.023a1.99 1.99 0 0 0-.788.153c-.24.102-.444.245-.612.428s-.298.403-.4.658a2.47 2.47 0 0 0-.138.841v.107h3.703v-.153c0-.612-.158-1.104-.474-1.476s-.75-.558-1.3-.558z" class="V"/></g><g transform="translate(38 86)"><use filter="url(#E)" xlink:href="#D" fill="#000"/><rect x="1.02" y="1.02" width="246.61" height="59.276" rx="8.16" class="Q T U"/><g transform="translate(19.38 20.458)"><mask class="Q"><use xlink:href="#F"/></mask><use transform="matrix(.707107 -.707107 .707107 .707107 -3.572376 9.225521)" xlink:href="#F" class="R S"/></g><path d="M60.007 36.078l-.964-2.892H55.05l-.933 2.892h-1.76l3.64-10.68h2.173l3.64 10.68h-1.805zM57.084 27h-.076l-1.545 4.712h3.152L57.084 27zm11.26 7.772h-.076c-.173.47-.456.836-.85 1.102s-.854.398-1.385.398c-1 0-1.8-.365-2.34-1.094s-.826-1.752-.826-3.068.275-2.338.826-3.068 1.33-1.094 2.34-1.094c.53 0 .992.13 1.385.4s.676.63.85 1.11h.076v-4.682h1.668v11.322h-1.668v-1.316zm-1.805.06c.5 0 .938-.125 1.285-.375a1.16 1.16 0 0 0 .52-.987v-2.723a1.16 1.16 0 0 0-.52-.987c-.347-.25-.775-.375-1.285-.375-.58 0-1.045.186-1.392.558s-.52.864-.52 1.476v1.377c0 .612.173 1.104.52 1.476s.81.558 1.392.558zm10.863-.06h-.076c-.173.47-.456.836-.85 1.102s-.854.398-1.385.398c-1 0-1.8-.365-2.34-1.094s-.826-1.752-.826-3.068.275-2.338.826-3.068 1.33-1.094 2.34-1.094c.53 0 .992.13 1.385.4s.676.63.85 1.11h.076v-4.682h1.668v11.322h-1.668v-1.316zm-1.805.06c.5 0 .938-.125 1.285-.375a1.16 1.16 0 0 0 .52-.987v-2.723a1.16 1.16 0 0 0-.52-.987c-.347-.25-.775-.375-1.285-.375-.58 0-1.045.186-1.392.558s-.52.864-.52 1.476v1.377c0 .612.173 1.104.52 1.476s.81.558 1.392.558zm11.674 1.255c-.58 0-1.02-.15-1.316-.45s-.444-.727-.444-1.278v-4.865h-1.24v-1.362h.673c.275 0 .467-.06.574-.184s.16-.32.16-.597V25.95h1.5v2.173h1.668v1.362H87.18v5.233h1.545v1.362H87.27zm9.21 0c-.44 0-.775-.125-1-.375s-.377-.57-.428-.956h-.076c-.153.5-.433.877-.84 1.132s-.903.383-1.484.383c-.826 0-1.46-.214-1.905-.643s-.666-1.005-.666-1.73c0-.796.288-1.392.864-1.8s1.42-.597 2.532-.597h1.438v-.673c0-.5-.133-.867-.398-1.132s-.678-.398-1.24-.398c-.47 0-.852.102-1.147.306a2.74 2.74 0 0 0-.75.78l-.995-.903c.265-.45.637-.82 1.117-1.11s1.107-.436 1.882-.436c1.03 0 1.82.24 2.37.72s.826 1.168.826 2.066v3.993h.84v1.362h-.933zm-3.366-1.086c.52 0 .95-.115 1.285-.344s.505-.538.505-.926v-1.148h-1.408c-1.153 0-1.73.357-1.73 1.07v.275c0 .357.12.625.36.803s.57.268.987.268zm12.913 1.836c0 .826-.316 1.448-.95 1.867s-1.663.627-3.09.627c-.653 0-1.206-.043-1.66-.13s-.826-.212-1.117-.375-.502-.362-.635-.597a1.62 1.62 0 0 1-.199-.811c0-.44.12-.78.36-1.025s.574-.413 1.002-.505v-.168c-.602-.194-.903-.602-.903-1.224 0-.408.138-.722.413-.94s.607-.375.995-.467v-.06c-.47-.224-.83-.538-1.08-.94s-.375-.875-.375-1.415c0-.816.273-1.474.82-1.974s1.33-.75 2.35-.75c.56 0 1.04.082 1.438.245v-.214c0-.357.084-.635.252-.834s.43-.298.788-.298h1.224v1.346h-1.622v.32a2.4 2.4 0 0 1 .826.91 2.66 2.66 0 0 1 .291 1.247c0 .806-.275 1.456-.826 1.95s-1.336.742-2.356.742c-.388 0-.734-.04-1.04-.122a1.71 1.71 0 0 0-.535.298c-.153.128-.23.293-.23.497a.47.47 0 0 0 .291.459c.194.092.47.138.826.138h1.958c.98 0 1.688.196 2.127.59s.658.93.658 1.614zm-1.56.184a.79.79 0 0 0-.314-.658c-.21-.163-.59-.245-1.14-.245h-2.693c-.367.214-.55.52-.55.918 0 .326.13.59.4.788s.7.298 1.323.298h1.04c1.295 0 1.943-.367 1.943-1.102zm-2.494-4.865c.5 0 .87-.1 1.14-.33s.405-.558.405-1.017v-.306c0-.46-.135-.798-.405-1.017s-.65-.33-1.14-.33-.87.1-1.14.33-.405.558-.405 1.017v.306c0 .46.135.798.405 1.017s.65.33 1.14.33zm6.472 4.116c-.377 0-.658-.1-.84-.298s-.275-.446-.275-.742v-.23c0-.296.092-.543.275-.742s.464-.298.84-.298.658.1.84.298.275.446.275.742v.23c0 .296-.092.543-.275.742s-.464.298-.84.298zm0-5.936c-.377 0-.658-.1-.84-.298s-.275-.446-.275-.742v-.23c0-.296.092-.543.275-.742s.464-.298.84-.298.658.1.84.298.275.446.275.742v.23c0 .296-.092.543-.275.742s-.464.298-.84.298zm7.298 5.753v-10.68h4.6c.99 0 1.754.29 2.295.872s.81 1.362.81 2.34-.27 1.76-.81 2.34-1.306.872-2.295.872h-2.86v4.253h-1.73zm1.73-5.768h2.754c.44 0 .78-.115 1.025-.344s.367-.558.367-.987v-.734c0-.428-.122-.757-.367-.987s-.586-.344-1.025-.344h-2.754V30.3zm7.742 5.768v-7.956h1.668v1.53h.076c.112-.408.347-.765.704-1.07s.852-.46 1.484-.46h.444v1.607h-.658c-.663 0-1.17.107-1.522.32a1.04 1.04 0 0 0-.528.949v5.08h-1.668zm8.98.184a3.8 3.8 0 0 1-1.507-.291c-.454-.194-.84-.472-1.155-.834s-.56-.8-.734-1.316-.26-1.09-.26-1.72.087-1.206.26-1.72.418-.954.734-1.316.7-.64 1.155-.834a3.8 3.8 0 0 1 1.507-.291 3.8 3.8 0 0 1 1.507.291c.454.194.84.472 1.155.834s.56.8.734 1.316.26 1.09.26 1.72-.087 1.206-.26 1.72-.418.954-.734 1.316-.7.64-1.155.834a3.8 3.8 0 0 1-1.507.291zm0-1.377c.57 0 1.03-.176 1.377-.528s.52-.88.52-1.584v-1.346c0-.704-.173-1.232-.52-1.584s-.806-.528-1.377-.528-1.03.176-1.377.528-.52.88-.52 1.584v1.346c0 .704.173 1.232.52 1.584s.806.528 1.377.528zm10.51-.122h-.077c-.173.47-.456.836-.85 1.102s-.854.398-1.385.398c-1 0-1.8-.365-2.34-1.094s-.826-1.752-.826-3.068.275-2.338.826-3.068 1.33-1.094 2.34-1.094c.53 0 .992.13 1.385.4s.676.63.85 1.11h.077v-4.682h1.668v11.322h-1.668v-1.316zm-1.805.06c.5 0 .938-.125 1.285-.375a1.16 1.16 0 0 0 .52-.987v-2.723a1.16 1.16 0 0 0-.52-.987c-.347-.25-.775-.375-1.285-.375-.58 0-1.045.186-1.392.558s-.52.864-.52 1.476v1.377c0 .612.173 1.104.52 1.476s.81.558 1.392.558zm10.68-.06h-.06c-.07.194-.166.382-.283.566s-.265.344-.444.482a2.12 2.12 0 0 1-.643.329c-.25.082-.538.122-.864.122-.826 0-1.466-.265-1.92-.796s-.68-1.3-.68-2.28v-5.064h1.668v4.85c0 1.234.5 1.85 1.53 1.85.214 0 .423-.028.627-.084s.385-.14.543-.252a1.29 1.29 0 0 0 .382-.428c.097-.173.145-.377.145-.612v-5.324h1.668v7.956h-1.668v-1.316zm7.13 1.5c-.57 0-1.08-.097-1.53-.29s-.826-.472-1.132-.834a3.78 3.78 0 0 1-.704-1.316c-.163-.515-.245-1.09-.245-1.72s.082-1.206.245-1.72a3.78 3.78 0 0 1 .704-1.316c.306-.362.683-.64 1.132-.834s.96-.29 1.53-.29c.796 0 1.448.178 1.958.535s.882.83 1.117 1.423l-1.377.643c-.112-.367-.31-.66-.59-.88s-.65-.33-1.11-.33c-.612 0-1.074.19-1.385.574s-.467.88-.467 1.492v1.423c0 .612.156 1.11.467 1.492s.773.574 1.385.574c.5 0 .88-.12 1.17-.36s.523-.558.696-.956l1.27.673c-.265.653-.663 1.153-1.193 1.5s-1.178.52-1.943.52zm6.93-.184c-.58 0-1.02-.15-1.316-.45s-.444-.727-.444-1.278v-4.865h-1.24v-1.362h.673c.275 0 .467-.06.574-.184s.16-.32.16-.597V25.95h1.5v2.173h1.668v1.362h-1.668v5.233h1.545v1.362h-1.453zm7.834-9.38c-.347 0-.6-.082-.757-.245s-.237-.372-.237-.627v-.26c0-.255.08-.464.237-.627s.41-.245.757-.245.597.082.75.245a.88.88 0 0 1 .23.627v.26a.88.88 0 0 1-.23.627c-.153.163-.403.245-.75.245zm-.84 1.423h1.668v7.956h-1.668v-7.956zm4.055 7.956v-7.956h1.668v1.316h.076c.173-.428.436-.785.788-1.07s.834-.428 1.446-.428c.816 0 1.45.268 1.905.803s.68 1.298.68 2.287v5.05h-1.668v-4.835c0-1.244-.5-1.867-1.5-1.867a2.44 2.44 0 0 0-.635.084 1.8 1.8 0 0 0-.558.252c-.163.112-.293.255-.4.428s-.145.377-.145.612v5.324h-1.668zm11.077 0c-.58 0-1.02-.15-1.316-.45s-.444-.727-.444-1.278v-4.865h-1.24v-1.362h.673c.275 0 .467-.06.574-.184s.16-.32.16-.597V25.95h1.5v2.173h1.668v1.362h-1.668v5.233h1.545v1.362h-1.454zm6.503.184c-.57 0-1.08-.097-1.53-.29s-.83-.472-1.148-.834-.558-.8-.727-1.316-.252-1.09-.252-1.72.084-1.206.252-1.72.41-.954.727-1.316.7-.64 1.148-.834.96-.29 1.53-.29c.58 0 1.094.102 1.538.306a3.06 3.06 0 0 1 1.109.849c.296.362.518.783.666 1.262s.222.994.222 1.545v.627h-5.462v.26c0 .612.18 1.114.543 1.507s.88.59 1.553.59c.5 0 .903-.107 1.24-.32a2.8 2.8 0 0 0 .857-.872l.98.964c-.296.5-.724.88-1.285 1.17s-1.214.436-1.958.436zm0-7.023a1.99 1.99 0 0 0-.788.153c-.24.102-.444.245-.612.428s-.298.403-.4.658a2.47 2.47 0 0 0-.138.841v.107h3.703v-.153c0-.612-.158-1.104-.474-1.476s-.75-.558-1.3-.558zm5.386 6.84v-7.956h1.668v1.53h.077c.112-.408.347-.765.704-1.07s.852-.46 1.484-.46h.444v1.607h-.658c-.663 0-1.17.107-1.522.32a1.04 1.04 0 0 0-.528.949v5.08h-1.668zm8.98.184c-.57 0-1.08-.097-1.53-.29s-.83-.472-1.147-.834-.558-.8-.727-1.316-.252-1.09-.252-1.72.084-1.206.252-1.72.41-.954.727-1.316.7-.64 1.147-.834.96-.29 1.53-.29c.58 0 1.094.102 1.538.306a3.06 3.06 0 0 1 1.109.849c.296.362.518.783.666 1.262s.222.994.222 1.545v.627h-5.462v.26c0 .612.18 1.114.543 1.507s.88.59 1.553.59c.5 0 .903-.107 1.24-.32a2.8 2.8 0 0 0 .857-.872l.98.964c-.296.5-.724.88-1.285 1.17s-1.214.436-1.958.436zm0-7.023a1.99 1.99 0 0 0-.788.153c-.24.102-.444.245-.612.428s-.298.403-.4.658a2.47 2.47 0 0 0-.138.841v.107h3.703v-.153c0-.612-.158-1.104-.474-1.476s-.75-.558-1.3-.558zm7.9 7.023c-.755 0-1.387-.133-1.897-.398a4.16 4.16 0 0 1-1.331-1.102l1.07-.98a3.43 3.43 0 0 0 .987.834c.362.2.783.298 1.262.298.5 0 .854-.094 1.094-.283s.36-.45.36-.788c0-.255-.084-.472-.252-.65s-.462-.293-.88-.344l-.734-.092c-.816-.102-1.456-.34-1.92-.71s-.696-.926-.696-1.66c0-.388.07-.732.214-1.033s.344-.556.604-.765a2.79 2.79 0 0 1 .933-.482c.362-.112.762-.168 1.2-.168.714 0 1.298.112 1.752.337s.86.535 1.216.933l-1.025.98c-.204-.245-.472-.456-.803-.635s-.71-.268-1.14-.268c-.46 0-.798.092-1.017.275s-.33.423-.33.72c0 .306.097.535.29.688s.505.265.933.337l.734.092c.877.133 1.517.4 1.92.773s.604.895.604 1.538a2.41 2.41 0 0 1-.222 1.048 2.3 2.3 0 0 1-.635.803c-.275.224-.607.398-.995.52s-.82.184-1.3.184zm7.237-.184c-.58 0-1.02-.15-1.316-.45s-.444-.727-.444-1.278v-4.865h-1.24v-1.362h.673c.275 0 .467-.06.574-.184s.16-.32.16-.597V25.95h1.5v2.173h1.668v1.362H225.7v5.233h1.545v1.362h-1.453z" class="V"/></g><g transform="translate(0 172)"><use filter="url(#H)" xlink:href="#G" fill="#000"/><use xlink:href="#G" class="R"/><g class="Q"><g transform="translate(19.38 20.458)"><mask><use xlink:href="#I"/></mask><use xlink:href="#I" class="S"/></g><path d="M60.007 26.078l-.964-2.892H55.05l-.933 2.892h-1.76l3.64-10.68h2.173l3.64 10.68h-1.805zM57.084 17h-.076l-1.545 4.712h3.152L57.084 17zm11.26 7.772h-.076c-.173.47-.456.836-.85 1.102s-.854.398-1.385.398c-1 0-1.8-.365-2.34-1.094s-.826-1.752-.826-3.068.275-2.338.826-3.068 1.33-1.094 2.34-1.094c.53 0 .992.13 1.385.4s.676.63.85 1.11h.076v-4.682h1.668v11.322h-1.668v-1.316zm-1.805.06c.5 0 .938-.125 1.285-.375a1.16 1.16 0 0 0 .52-.987v-2.723a1.16 1.16 0 0 0-.52-.987c-.347-.25-.775-.375-1.285-.375-.58 0-1.045.186-1.392.558s-.52.864-.52 1.476v1.377c0 .612.173 1.104.52 1.476s.81.558 1.392.558zm10.863-.06h-.076c-.173.47-.456.836-.85 1.102s-.854.398-1.385.398c-1 0-1.8-.365-2.34-1.094s-.826-1.752-.826-3.068.275-2.338.826-3.068 1.33-1.094 2.34-1.094c.53 0 .992.13 1.385.4s.676.63.85 1.11h.076v-4.682h1.668v11.322h-1.668v-1.316zm-1.805.06c.5 0 .938-.125 1.285-.375a1.16 1.16 0 0 0 .52-.987v-2.723a1.16 1.16 0 0 0-.52-.987c-.347-.25-.775-.375-1.285-.375-.58 0-1.045.186-1.392.558s-.52.864-.52 1.476v1.377c0 .612.173 1.104.52 1.476s.81.558 1.392.558zm11.674 1.255c-.58 0-1.02-.15-1.316-.45s-.444-.727-.444-1.278v-4.865h-1.24v-1.362h.673c.275 0 .467-.06.574-.184s.16-.32.16-.597V15.95h1.5v2.173h1.668v1.362H87.18v5.233h1.545v1.362H87.27zm6.503.184a3.8 3.8 0 0 1-1.507-.291c-.454-.194-.84-.472-1.155-.834s-.56-.8-.734-1.316-.26-1.09-.26-1.72.087-1.206.26-1.72.418-.954.734-1.316.7-.64 1.155-.834a3.8 3.8 0 0 1 1.507-.291 3.8 3.8 0 0 1 1.507.291c.454.194.84.472 1.155.834s.56.8.734 1.316.26 1.09.26 1.72-.087 1.206-.26 1.72-.418.954-.734 1.316-.7.64-1.155.834a3.8 3.8 0 0 1-1.507.291zm0-1.377c.57 0 1.03-.176 1.377-.528s.52-.88.52-1.584v-1.346c0-.704-.173-1.232-.52-1.584s-.806-.528-1.377-.528-1.03.176-1.377.528-.52.88-.52 1.584v1.346c0 .704.173 1.232.52 1.584s.806.528 1.377.528zm9.24 1.193v-10.68h6.67v1.53h-4.942v2.968h4.39v1.53h-4.39v4.65h-1.73zm14.428 0c-.44 0-.775-.125-1-.375s-.377-.57-.428-.956h-.076c-.153.5-.433.877-.84 1.132s-.903.383-1.484.383c-.826 0-1.46-.214-1.905-.643s-.666-1.005-.666-1.73c0-.796.288-1.392.864-1.8s1.42-.597 2.532-.597h1.438v-.673c0-.5-.133-.867-.398-1.132s-.678-.398-1.24-.398c-.47 0-.852.102-1.147.306a2.74 2.74 0 0 0-.75.78l-.995-.903c.265-.45.637-.82 1.117-1.11s1.107-.436 1.882-.436c1.03 0 1.82.24 2.37.72s.826 1.168.826 2.066v3.993h.84v1.362h-.933zm-3.366-1.086c.52 0 .95-.115 1.285-.344s.505-.538.505-.926v-1.148h-1.408c-1.153 0-1.73.357-1.73 1.07v.275c0 .357.12.625.36.803s.57.268.987.268zm9.012 1.27c-.57 0-1.08-.097-1.53-.29s-.826-.472-1.132-.834a3.78 3.78 0 0 1-.704-1.316c-.163-.515-.245-1.09-.245-1.72s.082-1.206.245-1.72a3.78 3.78 0 0 1 .704-1.316c.306-.362.683-.64 1.132-.834s.96-.29 1.53-.29c.796 0 1.448.178 1.958.535s.882.83 1.117 1.423l-1.377.643c-.112-.367-.31-.66-.59-.88s-.65-.33-1.11-.33c-.612 0-1.074.19-1.385.574s-.467.88-.467 1.492v1.423c0 .612.156 1.11.467 1.492s.773.574 1.385.574c.5 0 .88-.12 1.17-.36s.523-.558.696-.956l1.27.673c-.265.653-.663 1.153-1.193 1.5s-1.178.52-1.943.52zm7.85 0c-.57 0-1.08-.097-1.53-.29s-.83-.472-1.148-.834-.558-.8-.727-1.316-.252-1.09-.252-1.72.084-1.206.252-1.72.41-.954.727-1.316.7-.64 1.148-.834.96-.29 1.53-.29c.58 0 1.094.102 1.538.306a3.06 3.06 0 0 1 1.109.849c.296.362.518.783.666 1.262s.222.994.222 1.545v.627H129v.26c0 .612.18 1.114.543 1.507s.88.59 1.553.59c.5 0 .903-.107 1.24-.32a2.8 2.8 0 0 0 .857-.872l.98.964c-.296.5-.724.88-1.285 1.17s-1.214.436-1.958.436zm0-7.023a1.99 1.99 0 0 0-.788.153c-.24.102-.444.245-.612.428s-.298.403-.4.658a2.47 2.47 0 0 0-.138.841v.107h3.703v-.153c0-.612-.158-1.104-.474-1.476s-.75-.558-1.3-.558zm5.386-4.483h1.668v4.682h.077c.173-.48.456-.85.85-1.11s.854-.4 1.385-.4c1 0 1.8.365 2.34 1.094s.826 1.752.826 3.068-.275 2.338-.826 3.068-1.33 1.094-2.34 1.094c-.53 0-.992-.133-1.385-.398s-.676-.632-.85-1.102h-.077v1.316h-1.668V14.756zm3.473 10.067c.58 0 1.045-.186 1.392-.558s.52-.864.52-1.476V21.41c0-.612-.173-1.104-.52-1.476s-.81-.558-1.392-.558c-.5 0-.938.125-1.285.375a1.16 1.16 0 0 0-.52.987v2.723a1.16 1.16 0 0 0 .52.987c.347.25.775.375 1.285.375zm8.706 1.438a3.8 3.8 0 0 1-1.507-.291c-.454-.194-.84-.472-1.155-.834s-.56-.8-.734-1.316-.26-1.09-.26-1.72.087-1.206.26-1.72.418-.954.734-1.316.7-.64 1.155-.834a3.8 3.8 0 0 1 1.507-.291 3.8 3.8 0 0 1 1.507.291c.454.194.84.472 1.155.834s.56.8.734 1.316.26 1.09.26 1.72-.087 1.206-.26 1.72-.418.954-.734 1.316-.7.64-1.155.834a3.8 3.8 0 0 1-1.507.291zm0-1.377c.57 0 1.03-.176 1.377-.528s.52-.88.52-1.584v-1.346c0-.704-.173-1.232-.52-1.584s-.806-.528-1.377-.528-1.03.176-1.377.528-.52.88-.52 1.584v1.346c0 .704.173 1.232.52 1.584s.806.528 1.377.528zm8.63 1.377a3.8 3.8 0 0 1-1.507-.291c-.454-.194-.84-.472-1.155-.834s-.56-.8-.734-1.316-.26-1.09-.26-1.72.087-1.206.26-1.72.418-.954.734-1.316.7-.64 1.155-.834a3.8 3.8 0 0 1 1.507-.291 3.8 3.8 0 0 1 1.507.291c.454.194.84.472 1.155.834s.56.8.734 1.316.26 1.09.26 1.72-.087 1.206-.26 1.72-.418.954-.734 1.316-.7.64-1.155.834a3.8 3.8 0 0 1-1.507.291zm0-1.377c.57 0 1.03-.176 1.377-.528s.52-.88.52-1.584v-1.346c0-.704-.173-1.232-.52-1.584s-.806-.528-1.377-.528-1.03.176-1.377.528-.52.88-.52 1.584v1.346c0 .704.173 1.232.52 1.584s.806.528 1.377.528zm5.508-10.13h1.668v6.946h.076l1.102-1.423 1.912-2.157h1.943l-2.785 3.075 3.12 4.88h-1.99l-2.28-3.794-1.102 1.193v2.6h-1.668V14.756zm16.11 11.506c-1.397 0-2.494-.472-3.3-1.415s-1.193-2.313-1.193-4.108c0-.898.102-1.688.306-2.372s.5-1.26.887-1.73.86-.824 1.415-1.063 1.18-.36 1.874-.36c.928 0 1.706.204 2.333.612s1.12 1 1.476 1.805l-1.453.796c-.184-.5-.467-.915-.85-1.216s-.885-.45-1.507-.45c-.826 0-1.474.28-1.943.84s-.704 1.336-.704 2.326v1.622c0 .99.235 1.765.704 2.326s1.117.84 1.943.84c.643 0 1.165-.166 1.568-.497s.7-.757.895-1.278l1.392.84c-.357.775-.857 1.382-1.5 1.82s-1.428.658-2.356.658zm10.39-1.5h-.06c-.07.194-.166.382-.283.566s-.265.344-.444.482a2.12 2.12 0 0 1-.643.329c-.25.082-.538.122-.864.122-.826 0-1.466-.265-1.92-.796s-.68-1.3-.68-2.28v-5.064h1.668v4.85c0 1.234.5 1.85 1.53 1.85.214 0 .423-.028.627-.084s.385-.14.543-.252a1.29 1.29 0 0 0 .382-.428c.097-.173.145-.377.145-.612v-5.324h1.668v7.956h-1.668v-1.316zm6.58 1.5c-.755 0-1.387-.133-1.897-.398a4.16 4.16 0 0 1-1.331-1.102l1.07-.98a3.43 3.43 0 0 0 .987.834c.362.2.783.298 1.262.298.5 0 .854-.094 1.094-.283s.36-.45.36-.788c0-.255-.084-.472-.252-.65s-.462-.293-.88-.344l-.734-.092c-.816-.102-1.456-.34-1.92-.71s-.696-.926-.696-1.66c0-.388.07-.732.214-1.033s.344-.556.604-.765a2.79 2.79 0 0 1 .933-.482c.362-.112.762-.168 1.2-.168.714 0 1.298.112 1.752.337s.86.535 1.216.933l-1.025.98c-.204-.245-.472-.456-.803-.635s-.71-.268-1.14-.268c-.46 0-.798.092-1.017.275s-.33.423-.33.72c0 .306.097.535.29.688s.505.265.933.337l.734.092c.877.133 1.517.4 1.92.773s.604.895.604 1.538a2.41 2.41 0 0 1-.222 1.048 2.3 2.3 0 0 1-.635.803c-.275.224-.607.398-.994.52s-.82.184-1.3.184zm7.237-.184c-.58 0-1.02-.15-1.316-.45s-.444-.727-.444-1.278v-4.865h-1.24v-1.362h.673c.275 0 .467-.06.574-.184s.16-.32.16-.597V15.95h1.5v2.173h1.668v1.362h-1.668v5.233h1.545v1.362h-1.453zm6.502.184a3.8 3.8 0 0 1-1.507-.291c-.454-.194-.84-.472-1.155-.834s-.56-.8-.734-1.316-.26-1.09-.26-1.72.087-1.206.26-1.72.418-.954.734-1.316.7-.64 1.155-.834a3.8 3.8 0 0 1 1.507-.291 3.8 3.8 0 0 1 1.507.291c.454.194.84.472 1.155.834s.56.8.734 1.316.26 1.09.26 1.72-.087 1.206-.26 1.72-.418.954-.734 1.316-.7.64-1.155.834a3.8 3.8 0 0 1-1.507.291zm0-1.377c.57 0 1.03-.176 1.377-.528s.52-.88.52-1.584v-1.346c0-.704-.173-1.232-.52-1.584s-.806-.528-1.377-.528-1.03.176-1.377.528-.52.88-.52 1.584v1.346c0 .704.173 1.232.52 1.584s.806.528 1.377.528zm5.508 1.193v-7.956h1.668v1.316h.077c.082-.204.18-.398.298-.58s.26-.344.428-.482a1.86 1.86 0 0 1 .597-.321c.23-.077.497-.115.803-.115.54 0 1.02.133 1.438.398s.724.673.918 1.224h.046a2.33 2.33 0 0 1 .826-1.148c.408-.316.933-.474 1.576-.474.796 0 1.413.268 1.85.803s.658 1.298.658 2.287v5.05h-1.668v-4.85c0-.612-.117-1.074-.352-1.385s-.607-.467-1.117-.467a2.19 2.19 0 0 0-.612.084c-.194.056-.365.14-.513.252a1.28 1.28 0 0 0-.36.428c-.092.173-.138.372-.138.597v5.34h-1.668v-4.85c0-1.234-.484-1.85-1.453-1.85-.204 0-.405.028-.604.084s-.375.14-.528.252-.275.255-.367.428-.138.372-.138.597v5.34h-1.668zm23.9 0l-.964-2.892h-3.993l-.933 2.892h-1.76l3.64-10.68h2.173l3.64 10.68h-1.805zM235.94 17h-.077l-1.545 4.712h3.152L235.94 17zm11.077 7.772h-.06c-.07.194-.166.382-.283.566s-.265.344-.444.482a2.12 2.12 0 0 1-.643.329c-.25.082-.538.122-.864.122-.826 0-1.466-.265-1.92-.796s-.68-1.3-.68-2.28v-5.064h1.668v4.85c0 1.234.5 1.85 1.53 1.85.214 0 .423-.028.627-.084s.385-.14.543-.252a1.29 1.29 0 0 0 .383-.428c.097-.173.145-.377.145-.612v-5.324h1.668v7.956h-1.668v-1.316zm9.058 0H256c-.173.47-.456.836-.85 1.102s-.854.398-1.385.398c-1 0-1.8-.365-2.34-1.094s-.826-1.752-.826-3.068.275-2.338.826-3.068 1.33-1.094 2.34-1.094c.53 0 .992.13 1.385.4s.676.63.85 1.11h.077v-4.682h1.668v11.322h-1.668v-1.316zm-1.805.06c.5 0 .938-.125 1.285-.375a1.16 1.16 0 0 0 .52-.987v-2.723a1.16 1.16 0 0 0-.52-.987c-.347-.25-.775-.375-1.285-.375-.58 0-1.045.186-1.392.558s-.52.864-.52 1.476v1.377c0 .612.173 1.104.52 1.476s.81.558 1.392.558zm6.7-8.124c-.347 0-.6-.082-.757-.245s-.237-.372-.237-.627v-.26c0-.255.08-.464.237-.627s.41-.245.757-.245.597.082.75.245a.88.88 0 0 1 .23.627v.26a.88.88 0 0 1-.23.627c-.153.163-.403.245-.75.245zm-.84 1.423h1.668v7.956h-1.668v-7.956zm7.176 8.14c-.57 0-1.08-.097-1.53-.29s-.83-.472-1.147-.834-.558-.8-.727-1.316-.252-1.09-.252-1.72.084-1.206.252-1.72.41-.954.727-1.316.7-.64 1.147-.834.96-.29 1.53-.29c.58 0 1.094.102 1.538.306a3.06 3.06 0 0 1 1.109.849c.296.362.518.783.666 1.262s.222.994.222 1.545v.627h-5.462v.26c0 .612.18 1.114.543 1.507s.88.59 1.553.59c.5 0 .903-.107 1.24-.32a2.8 2.8 0 0 0 .857-.872l.98.964c-.296.5-.724.88-1.285 1.17s-1.214.436-1.958.436zm0-7.023a1.99 1.99 0 0 0-.788.153c-.24.102-.444.245-.612.428s-.298.403-.4.658a2.47 2.47 0 0 0-.138.841v.107h3.703v-.153c0-.612-.158-1.104-.474-1.476s-.75-.558-1.3-.558zm5.386 6.84v-7.956h1.668v1.316h.077c.173-.428.436-.785.788-1.07s.834-.428 1.446-.428c.816 0 1.45.268 1.905.803s.68 1.298.68 2.287v5.05h-1.668v-4.835c0-1.244-.5-1.867-1.5-1.867a2.44 2.44 0 0 0-.635.084 1.8 1.8 0 0 0-.558.252c-.163.112-.293.255-.4.428s-.145.377-.145.612v5.324h-1.668zm11.95.184c-.57 0-1.08-.097-1.53-.29s-.826-.472-1.132-.834a3.78 3.78 0 0 1-.704-1.316c-.163-.515-.245-1.09-.245-1.72s.082-1.206.245-1.72a3.78 3.78 0 0 1 .704-1.316c.306-.362.683-.64 1.132-.834s.96-.29 1.53-.29c.796 0 1.448.178 1.958.535s.882.83 1.117 1.423l-1.377.643c-.112-.367-.31-.66-.59-.88s-.65-.33-1.11-.33c-.612 0-1.074.19-1.385.574s-.467.88-.467 1.492v1.423c0 .612.156 1.11.467 1.492s.773.574 1.385.574c.5 0 .88-.12 1.17-.36s.523-.558.696-.956l1.27.673c-.265.653-.663 1.153-1.193 1.5s-1.178.52-1.943.52zm7.85 0c-.57 0-1.08-.097-1.53-.29s-.83-.472-1.148-.834-.558-.8-.727-1.316-.252-1.09-.252-1.72.084-1.206.252-1.72.41-.954.727-1.316.7-.64 1.148-.834.96-.29 1.53-.29c.58 0 1.094.102 1.538.306a3.06 3.06 0 0 1 1.109.849c.296.362.518.783.666 1.262s.222.994.222 1.545v.627h-5.462v.26c0 .612.18 1.114.543 1.507s.88.59 1.553.59c.5 0 .903-.107 1.24-.32a2.8 2.8 0 0 0 .857-.872l.98.964c-.296.5-.724.88-1.285 1.17s-1.214.436-1.958.436zm0-7.023a1.99 1.99 0 0 0-.788.153c-.24.102-.444.245-.612.428s-.298.403-.4.658a2.47 2.47 0 0 0-.138.841v.107h3.703v-.153c0-.612-.158-1.104-.474-1.476s-.75-.558-1.3-.558zm6.564 7.023c-.377 0-.658-.1-.84-.298s-.275-.446-.275-.742v-.23c0-.296.092-.543.275-.742s.464-.298.84-.298.658.1.84.298.275.446.275.742v.23c0 .296-.092.543-.275.742s-.464.298-.84.298zm0-5.936c-.377 0-.658-.1-.84-.298s-.275-.446-.275-.742v-.23c0-.296.092-.543.275-.742s.464-.298.84-.298.658.1.84.298.275.446.275.742v.23c0 .296-.092.543-.275.742s-.464.298-.84.298zM53.336 46.078v-10.68h4.6c.99 0 1.754.29 2.295.872s.81 1.362.81 2.34-.27 1.76-.81 2.34-1.306.872-2.295.872h-2.86v4.253h-1.73zm1.73-5.768h2.754c.44 0 .78-.115 1.025-.344s.367-.558.367-.987v-.734c0-.428-.122-.757-.367-.987s-.586-.344-1.025-.344h-2.754V40.3zm7.742 5.768v-7.956h1.668v1.53h.077c.112-.408.347-.765.704-1.07s.852-.46 1.484-.46h.444v1.607h-.658c-.663 0-1.17.107-1.522.32a1.04 1.04 0 0 0-.528.949v5.08h-1.668zm8.98.184a3.8 3.8 0 0 1-1.507-.291c-.454-.194-.84-.472-1.155-.834s-.56-.8-.734-1.316-.26-1.09-.26-1.72.087-1.206.26-1.72.418-.954.734-1.316.7-.64 1.155-.834a3.8 3.8 0 0 1 1.507-.291 3.8 3.8 0 0 1 1.507.291c.454.194.84.472 1.155.834s.56.8.734 1.316.26 1.09.26 1.72-.087 1.206-.26 1.72-.418.954-.734 1.316-.7.64-1.155.834a3.8 3.8 0 0 1-1.507.291zm0-1.377c.57 0 1.03-.176 1.377-.528s.52-.88.52-1.584v-1.346c0-.704-.173-1.232-.52-1.584s-.806-.528-1.377-.528-1.03.176-1.377.528-.52.88-.52 1.584v1.346c0 .704.173 1.232.52 1.584s.806.528 1.377.528zm10.51-.122h-.076c-.173.47-.456.836-.85 1.102s-.854.398-1.385.398c-1 0-1.8-.365-2.34-1.094s-.826-1.752-.826-3.068.275-2.338.826-3.068 1.33-1.094 2.34-1.094c.53 0 .992.13 1.385.4s.676.63.85 1.11h.076v-4.682h1.668v11.322H82.3v-1.316zm-1.805.06c.5 0 .938-.125 1.285-.375a1.16 1.16 0 0 0 .52-.987v-2.723a1.16 1.16 0 0 0-.52-.987c-.347-.25-.775-.375-1.285-.375-.58 0-1.045.186-1.392.558s-.52.864-.52 1.476v1.377c0 .612.173 1.104.52 1.476s.81.558 1.392.558zm10.68-.06h-.06c-.07.194-.166.382-.283.566s-.265.344-.444.482a2.12 2.12 0 0 1-.643.329c-.25.082-.538.122-.864.122-.826 0-1.466-.265-1.92-.796s-.68-1.3-.68-2.28v-5.064h1.668v4.85c0 1.234.5 1.85 1.53 1.85.214 0 .423-.028.627-.084s.385-.14.543-.252a1.29 1.29 0 0 0 .382-.428c.097-.173.145-.377.145-.612v-5.324h1.668v7.956h-1.668v-1.316zm7.13 1.5c-.57 0-1.08-.097-1.53-.29s-.826-.472-1.132-.834a3.78 3.78 0 0 1-.704-1.316c-.163-.515-.245-1.09-.245-1.72s.082-1.206.245-1.72a3.78 3.78 0 0 1 .704-1.316c.306-.362.683-.64 1.132-.834s.96-.29 1.53-.29c.796 0 1.448.178 1.958.535s.882.83 1.117 1.423L100 40.54c-.112-.367-.31-.66-.59-.88s-.65-.33-1.11-.33c-.612 0-1.074.19-1.385.574s-.467.88-.467 1.492v1.423c0 .612.156 1.11.467 1.492s.773.574 1.385.574c.5 0 .88-.12 1.17-.36s.523-.558.696-.956l1.27.673c-.265.653-.663 1.153-1.193 1.5s-1.178.52-1.943.52zm6.93-.184c-.58 0-1.02-.15-1.316-.45s-.444-.727-.444-1.278v-4.865h-1.24v-1.362h.673c.275 0 .467-.06.574-.184s.16-.32.16-.597V35.95h1.5v2.173h1.668v1.362h-1.668v5.233h1.545v1.362h-1.453zm6.656 0V44.67h1.453v-7.864h-1.453v-1.408h4.65v1.408h-1.47v7.864h1.47v1.408h-4.65zm6.7 0v-7.956h1.668v1.316h.077c.173-.428.436-.785.788-1.07s.834-.428 1.446-.428c.816 0 1.45.268 1.905.803s.68 1.298.68 2.287v5.05h-1.668v-4.835c0-1.244-.5-1.867-1.5-1.867a2.44 2.44 0 0 0-.635.084 1.8 1.8 0 0 0-.558.252c-.163.112-.293.255-.4.428s-.145.377-.145.612v5.324H118.6zm11.077 0c-.58 0-1.02-.15-1.316-.45s-.444-.727-.444-1.278v-4.865h-1.24v-1.362h.673c.275 0 .467-.06.574-.184s.16-.32.16-.597V35.95h1.5v2.173h1.668v1.362h-1.668v5.233h1.545v1.362h-1.454zm6.502.184c-.57 0-1.08-.097-1.53-.29s-.83-.472-1.147-.834-.558-.8-.727-1.316-.252-1.09-.252-1.72.084-1.206.252-1.72.41-.954.727-1.316.7-.64 1.147-.834.96-.29 1.53-.29c.58 0 1.094.102 1.538.306a3.06 3.06 0 0 1 1.109.849c.296.362.518.783.666 1.262s.222.994.222 1.545v.627h-5.462v.26c0 .612.18 1.114.543 1.507s.88.59 1.553.59c.5 0 .903-.107 1.24-.32a2.8 2.8 0 0 0 .857-.872l.98.964c-.296.5-.724.88-1.285 1.17s-1.214.436-1.958.436zm0-7.023a1.99 1.99 0 0 0-.788.153c-.24.102-.444.245-.612.428s-.298.403-.4.658a2.47 2.47 0 0 0-.138.842v.107h3.703v-.153c0-.612-.158-1.104-.474-1.476s-.75-.558-1.3-.558zm5.386 6.84v-7.956h1.668v1.53h.077c.112-.408.347-.765.704-1.07s.852-.46 1.484-.46h.444v1.607h-.658c-.663 0-1.17.107-1.522.32a1.04 1.04 0 0 0-.528.949v5.08h-1.668zm8.98.184c-.57 0-1.08-.097-1.53-.29s-.83-.472-1.148-.834-.558-.8-.727-1.316-.252-1.09-.252-1.72.084-1.206.252-1.72.41-.954.727-1.316.7-.64 1.148-.834.96-.29 1.53-.29c.58 0 1.094.102 1.538.306a3.06 3.06 0 0 1 1.109.849c.296.362.518.783.666 1.262s.222.994.222 1.545v.627h-5.462v.26c0 .612.18 1.114.543 1.507s.88.59 1.553.59c.5 0 .903-.107 1.24-.32a2.8 2.8 0 0 0 .857-.872l.98.964c-.296.5-.724.88-1.285 1.17s-1.214.436-1.958.436zm0-7.023a1.99 1.99 0 0 0-.788.153c-.24.102-.444.245-.612.428s-.298.403-.4.658a2.47 2.47 0 0 0-.138.842v.107h3.703v-.153c0-.612-.158-1.104-.474-1.476s-.75-.558-1.3-.558zm7.9 7.023c-.755 0-1.387-.133-1.897-.398a4.16 4.16 0 0 1-1.331-1.102l1.07-.98a3.43 3.43 0 0 0 .987.834c.362.2.783.298 1.262.298.5 0 .854-.094 1.094-.283s.36-.45.36-.788c0-.255-.084-.472-.252-.65s-.462-.293-.88-.344l-.734-.092c-.816-.102-1.456-.34-1.92-.71s-.696-.926-.696-1.66c0-.388.07-.732.214-1.033s.344-.556.604-.765a2.79 2.79 0 0 1 .933-.482c.362-.112.762-.168 1.2-.168.714 0 1.298.112 1.752.337s.86.535 1.216.933l-1.025.98c-.204-.245-.472-.456-.803-.635s-.71-.268-1.14-.268c-.46 0-.798.092-1.017.275s-.33.423-.33.72c0 .306.097.535.29.69s.505.265.933.337l.734.092c.877.133 1.517.4 1.92.773s.604.895.604 1.538a2.41 2.41 0 0 1-.222 1.048 2.3 2.3 0 0 1-.635.803c-.275.224-.607.398-.995.52s-.82.184-1.3.184zm7.237-.184c-.58 0-1.02-.15-1.316-.45s-.444-.727-.444-1.278v-4.865h-1.24v-1.362h.673c.275 0 .467-.06.574-.184s.16-.32.16-.597V35.95h1.5v2.173h1.668v1.362h-1.668v5.233h1.545v1.362h-1.454z"/></g></g><g transform="translate(69 258)"><use filter="url(#K)" xlink:href="#J" fill="#000"/><rect x="1.02" y="1.02" width="184.61" height="59.276" rx="8.16" class="Q T U"/><g transform="translate(19.38 20.458)"><mask class="Q"><use xlink:href="#L"/></mask><use xlink:href="#L" class="R S"/></g><path d="M53.336 36.078v-10.68h6.84v1.53h-5.1v2.968H59.7v1.53h-4.636v3.12h5.1v1.53h-6.84zm8.95 0v-7.956h1.668v1.316h.077c.173-.428.436-.785.788-1.07s.834-.428 1.446-.428c.816 0 1.45.268 1.905.803s.68 1.298.68 2.287v5.05h-1.668v-4.835c0-1.244-.5-1.867-1.5-1.867a2.44 2.44 0 0 0-.635.084 1.8 1.8 0 0 0-.558.252c-.163.112-.293.255-.4.428s-.145.377-.145.612v5.324h-1.668zm13.877-1.316h-.076c-.173.47-.456.836-.85 1.102s-.854.398-1.385.398c-1 0-1.8-.365-2.34-1.094s-.826-1.752-.826-3.068.275-2.338.826-3.068 1.33-1.094 2.34-1.094c.53 0 .992.13 1.385.4s.676.63.85 1.11h.076v-4.682h1.668v11.322h-1.668v-1.316zm-1.805.06c.5 0 .938-.125 1.285-.375a1.16 1.16 0 0 0 .52-.987v-2.723a1.16 1.16 0 0 0-.52-.987c-.347-.25-.775-.375-1.285-.375-.58 0-1.045.186-1.392.558s-.52.864-.52 1.476v1.377c0 .612.173 1.104.52 1.476s.81.558 1.392.558zm16.264 1.255l-.964-2.892h-3.993l-.933 2.892h-1.76l3.64-10.68h2.173l3.64 10.68h-1.805zM87.7 27h-.077l-1.545 4.712h3.152L87.7 27zm11.077 7.772h-.06c-.07.194-.166.382-.283.566s-.265.344-.444.482a2.12 2.12 0 0 1-.643.329c-.25.082-.538.122-.864.122-.826 0-1.466-.265-1.92-.796s-.68-1.3-.68-2.28v-5.064h1.668v4.85c0 1.234.5 1.85 1.53 1.85.214 0 .423-.028.627-.084s.385-.14.543-.252a1.29 1.29 0 0 0 .383-.428c.097-.173.145-.377.145-.612v-5.324h1.668v7.956h-1.668v-1.316zm6.258 1.316c-.58 0-1.02-.15-1.316-.45s-.444-.727-.444-1.278v-4.865h-1.24v-1.362h.673c.275 0 .467-.06.574-.184s.16-.32.16-.597V25.95h1.5v2.173h1.668v1.362h-1.668v5.233h1.545v1.362h-1.454zm6.503.184a3.8 3.8 0 0 1-1.507-.291c-.454-.194-.84-.472-1.155-.834s-.56-.8-.734-1.316-.26-1.09-.26-1.72.087-1.206.26-1.72.418-.954.734-1.316.7-.64 1.155-.834a3.8 3.8 0 0 1 1.507-.291 3.8 3.8 0 0 1 1.507.291c.454.194.84.472 1.155.834s.56.8.734 1.316.26 1.09.26 1.72-.087 1.206-.26 1.72-.418.954-.734 1.316-.7.64-1.155.834a3.8 3.8 0 0 1-1.507.291zm0-1.377c.57 0 1.03-.176 1.377-.528s.52-.88.52-1.584v-1.346c0-.704-.173-1.232-.52-1.584s-.806-.528-1.377-.528-1.03.176-1.377.528-.52.88-.52 1.584v1.346c0 .704.173 1.232.52 1.584s.806.528 1.377.528zm5.508 1.193v-7.956h1.668v1.316h.076c.082-.204.18-.398.298-.58s.26-.344.428-.482a1.86 1.86 0 0 1 .597-.321c.23-.077.497-.115.803-.115.54 0 1.02.133 1.438.398s.724.673.918 1.224h.046a2.33 2.33 0 0 1 .826-1.148c.408-.316.933-.474 1.576-.474.796 0 1.413.268 1.85.803s.658 1.298.658 2.287v5.05h-1.668v-4.85c0-.612-.117-1.074-.352-1.385s-.607-.467-1.117-.467a2.19 2.19 0 0 0-.612.084c-.194.056-.365.14-.513.252a1.28 1.28 0 0 0-.36.428c-.092.173-.138.372-.138.597v5.34h-1.668v-4.85c0-1.234-.484-1.85-1.453-1.85-.204 0-.405.028-.604.084s-.375.14-.528.252-.275.255-.367.428-.138.372-.138.597v5.34h-1.668zm19.324 0c-.44 0-.775-.125-1-.375s-.377-.57-.428-.956h-.077c-.153.5-.433.877-.84 1.132s-.903.383-1.484.383c-.826 0-1.46-.214-1.905-.643s-.666-1.005-.666-1.73c0-.796.288-1.392.864-1.8s1.42-.597 2.532-.597h1.438v-.673c0-.5-.133-.867-.398-1.132s-.678-.398-1.24-.398c-.47 0-.852.102-1.148.306a2.74 2.74 0 0 0-.75.78l-.995-.903c.265-.45.637-.82 1.117-1.11s1.107-.436 1.882-.436c1.03 0 1.82.24 2.37.72s.826 1.168.826 2.066v3.993h.84v1.362h-.933zm-3.366-1.086c.52 0 .95-.115 1.285-.344s.505-.538.505-.926v-1.148h-1.408c-1.153 0-1.73.357-1.73 1.07v.275c0 .357.12.625.36.803s.57.268.987.268zm8.14 1.086c-.58 0-1.02-.15-1.316-.45s-.444-.727-.444-1.278v-4.865h-1.24v-1.362h.673c.275 0 .467-.06.574-.184s.16-.32.16-.597V25.95h1.5v2.173h1.668v1.362h-1.668v5.233h1.545v1.362h-1.453zm4.223-9.38c-.347 0-.6-.082-.757-.245s-.237-.372-.237-.627v-.26c0-.255.08-.464.237-.627s.41-.245.757-.245.597.082.75.245a.88.88 0 0 1 .23.627v.26a.88.88 0 0 1-.23.627c-.153.163-.403.245-.75.245zm-.84 1.423h1.668v7.956h-1.668v-7.956zm7.176 8.14a3.8 3.8 0 0 1-1.507-.291c-.454-.194-.84-.472-1.155-.834s-.56-.8-.734-1.316-.26-1.09-.26-1.72.087-1.206.26-1.72.418-.954.734-1.316.7-.64 1.155-.834a3.8 3.8 0 0 1 1.507-.291 3.8 3.8 0 0 1 1.507.291c.454.194.84.472 1.155.834s.56.8.734 1.316.26 1.09.26 1.72-.087 1.206-.26 1.72-.418.954-.734 1.316-.7.64-1.155.834a3.8 3.8 0 0 1-1.507.291zm0-1.377c.57 0 1.03-.176 1.377-.528s.52-.88.52-1.584v-1.346c0-.704-.173-1.232-.52-1.584s-.806-.528-1.377-.528-1.03.176-1.377.528-.52.88-.52 1.584v1.346c0 .704.173 1.232.52 1.584s.806.528 1.377.528zm5.508 1.193v-7.956h1.668v1.316h.076c.173-.428.436-.785.788-1.07s.834-.428 1.446-.428c.816 0 1.45.268 1.905.803s.68 1.298.68 2.287v5.05h-1.668v-4.835c0-1.244-.5-1.867-1.5-1.867a2.44 2.44 0 0 0-.635.084 1.8 1.8 0 0 0-.558.252c-.163.112-.293.255-.4.428s-.145.377-.145.612v5.324h-1.668z" class="V"/></g></g></svg>