<svg xmlns="http://www.w3.org/2000/svg" xmlns:xlink="http://www.w3.org/1999/xlink" width="467" height="189"><defs><rect id="A" width="215.801" height="66.062" rx="8.808" y="0"/><filter x="-10.2%" y="-25.7%" width="120.4%" height="166.6%" id="B"><feOffset dy="5" in="SourceAlpha"/><feGaussianBlur stdDeviation="6.5"/><feComposite in2="SourceAlpha" operator="out"/><feColorMatrix values="0 0 0 0 0.207843137 0 0 0 0 0.415686275 0 0 0 0 0.901960784 0 0 0 0.12 0"/></filter><path d="M10.732 12.393l4.428 8.7-2.5 1.27-4.45-8.736-5.423 6.173V0l16.77 11.308-8.833 1.085z" id="C"/><rect id="D" width="256.129" height="66.062" rx="8.808" y="0"/><filter x="-8.6%" y="-25.7%" width="117.2%" height="166.6%" id="E"><feOffset dy="5" in="SourceAlpha"/><feGaussianBlur stdDeviation="6.5"/><feComposite in2="SourceAlpha" operator="out"/><feColorMatrix values="0 0 0 0 0.207843137 0 0 0 0 0.415686275 0 0 0 0 0.901960784 0 0 0 0.0705389493 0"/></filter><mask id="F" width="256.129" height="66.062" fill="#fff"><use xlink:href="#D"/></mask><rect id="G" x=".236" y=".516" width="256.005" height="70.466" rx="9.395"/><filter x="-8.6%" y="-24.1%" width="117.2%" height="162.4%" id="H"><feOffset dy="5" in="SourceAlpha"/><feGaussianBlur stdDeviation="6.5"/><feComposite in2="SourceAlpha" operator="out"/><feColorMatrix values="0 0 0 0 0.207843137 0 0 0 0 0.415686275 0 0 0 0 0.901960784 0 0 0 0.12 0"/></filter><path d="M8.385-.974h3.727l3.727 4.87v17.532H4.658V3.896l3.727-4.87zm1.863 9.74c1.03 0 1.863-.872 1.863-1.948s-.834-1.948-1.863-1.948-1.863.872-1.863 1.948.834 1.948 1.863 1.948z" id="I"/></defs><g transform="translate(13 8)" fill="none"><g transform="translate(20.604)"><use filter="url(#B)" xlink:href="#A" fill="#000"/><rect x="1.101" y="1.101" width="213.599" height="63.86" rx="8.808" stroke="#19CCA3" stroke-width="2.202" fill="#fff"/><g transform="translate(28.627 22.021)"><mask fill="#fff"><use xlink:href="#C"/></mask><g fill="#19CCA3"><use xlink:href="#C" fill-rule="nonzero"/><path d="M39.004 17.198c-.97 0-1.792-.176-2.47-.528a5.5 5.5 0 0 1-1.742-1.42l1.288-1.206c.407.495.856.87 1.346 1.123s1.05.38 1.676.38c.738 0 1.294-.165 1.668-.495s.562-.776.562-1.338c0-.45-.132-.81-.396-1.074s-.732-.462-1.404-.595l-1.024-.182c-1.123-.21-1.965-.578-2.527-1.107s-.842-1.255-.842-2.18c0-.506.096-.966.29-1.38s.462-.76.81-1.04.768-.498 1.263-.652 1.05-.23 1.668-.23c.87 0 1.624.15 2.263.454s1.184.74 1.635 1.313l-1.305 1.156c-.297-.385-.66-.694-1.1-.925s-.963-.347-1.602-.347c-.66 0-1.173.132-1.536.396s-.545.65-.545 1.156c0 .484.15.845.446 1.082s.76.416 1.387.537l1.024.215c1.156.22 2 .595 2.535 1.123s.8 1.255.8 2.18c0 .54-.094 1.03-.28 1.47s-.46.818-.818 1.13a3.74 3.74 0 0 1-1.313.727c-.517.17-1.107.256-1.767.256zM50.5 15.58h-.066a3.17 3.17 0 0 1-.306.611c-.127.198-.286.372-.48.52s-.424.267-.694.355-.58.132-.933.132c-.892 0-1.583-.286-2.073-.86s-.735-1.393-.735-2.46V8.412h1.8v5.235c0 1.332.55 1.998 1.652 1.998a2.54 2.54 0 0 0 .677-.091 1.85 1.85 0 0 0 .586-.273 1.39 1.39 0 0 0 .413-.462c.105-.187.157-.407.157-.66V8.412h1.8V17h-1.8v-1.42zm4.377-10.8h1.8v5.054h.083c.187-.517.493-.917.917-1.197s.922-.42 1.495-.42c1.1 0 1.932.394 2.527 1.18s.892 1.89.892 3.31-.297 2.524-.892 3.31-1.437 1.18-2.527 1.18c-.573 0-1.07-.143-1.495-.43s-.73-.683-.917-1.19h-.083V17h-1.8V4.78zm3.75 10.867c.628 0 1.13-.2 1.503-.603s.562-.933.562-1.594v-1.486c0-.66-.187-1.192-.562-1.594s-.875-.603-1.503-.603c-.55 0-1.013.135-1.387.405s-.562.625-.562 1.065v2.94c0 .44.187.795.562 1.065s.837.405 1.387.405zM64.652 17V8.412h1.8v1.42h.083a3.75 3.75 0 0 1 .322-.628c.127-.198.28-.372.462-.52a2.01 2.01 0 0 1 .644-.347c.248-.083.537-.124.867-.124.584 0 1.1.143 1.552.43s.782.727.99 1.32h.05c.154-.484.45-.897.892-1.24s1.007-.512 1.7-.512c.86 0 1.525.29 1.998.867s.7 1.4.7 2.47V17h-1.8v-5.235c0-.66-.127-1.16-.38-1.495s-.655-.504-1.206-.504c-.23 0-.45.03-.66.09s-.394.15-.553.273-.29.275-.388.462-.15.402-.15.644V17h-1.8v-5.235c0-1.332-.523-1.998-1.57-1.998a2.39 2.39 0 0 0-.652.091c-.215.06-.405.15-.57.273s-.297.275-.396.462-.15.402-.15.644V17h-1.8zM80.127 6.876c-.374 0-.647-.088-.818-.264s-.256-.402-.256-.677v-.28c0-.275.085-.5.256-.677s.443-.264.818-.264.644.088.81.264a.95.95 0 0 1 .248.677v.28a.95.95 0 0 1-.248.677c-.165.176-.435.264-.81.264zm-.908 1.536h1.8V17h-1.8V8.412zM85.974 17c-.628 0-1.1-.162-1.42-.487s-.48-.784-.48-1.38V9.882h-1.338v-1.47h.727c.297 0 .504-.066.62-.198s.173-.347.173-.644V6.067h1.62v2.345h1.8v1.47h-1.8v5.648h1.668V17h-1.57zm6.028 0c-.628 0-1.1-.162-1.42-.487s-.48-.784-.48-1.38V9.882h-1.338v-1.47h.727c.297 0 .504-.066.62-.198s.173-.347.173-.644V6.067h1.62v2.345h1.8v1.47h-1.8v5.648h1.668V17h-1.57zm7.02.198c-.617 0-1.167-.105-1.652-.314s-.897-.51-1.24-.9-.603-.864-.784-1.42-.273-1.175-.273-1.858.09-1.302.273-1.858.443-1.03.784-1.42.754-.69 1.24-.9 1.035-.314 1.652-.314c.628 0 1.18.1 1.66.33s.878.526 1.197.917.56.845.718 1.363a5.63 5.63 0 0 1 .239 1.668v.677H96.94v.28c0 .66.195 1.203.586 1.627s.95.636 1.676.636c.528 0 .974-.116 1.338-.347s.672-.545.925-.94l1.057 1.04c-.32.528-.782.95-1.387 1.263s-1.3.47-2.114.47zm0-7.58a2.15 2.15 0 0 0-.851.165c-.26.1-.48.264-.66.462a2.08 2.08 0 0 0-.421.71c-.1.275-.15.578-.15.908v.116h3.997v-.165c0-.66-.17-1.192-.512-1.594s-.81-.603-1.404-.603zm11.214 5.962h-.083c-.187.506-.493.903-.917 1.19s-.922.43-1.495.43c-1.1 0-1.932-.394-2.527-1.18s-.892-1.89-.892-3.31.297-2.524.892-3.31 1.437-1.18 2.527-1.18c.573 0 1.07.14 1.495.42s.73.68.917 1.197h.083V4.78h1.8V17h-1.8v-1.42zm-1.95.066c.55 0 1.013-.135 1.387-.405s.562-.625.562-1.065v-2.94c0-.44-.187-.795-.562-1.065s-.837-.405-1.387-.405c-.628 0-1.13.2-1.503.603s-.562.933-.562 1.594v1.486c0 .66.187 1.192.562 1.594s.875.603 1.503.603zM118.64 17V5.472h7.2v1.652h-5.334v3.204h4.74v1.652h-4.74V17h-1.866zm12.65.198c-.595 0-1.137-.105-1.627-.314a3.41 3.41 0 0 1-1.247-.9c-.34-.39-.606-.864-.793-1.42s-.28-1.175-.28-1.858.094-1.302.28-1.858.45-1.03.793-1.42a3.41 3.41 0 0 1 1.247-.9c.5-.21 1.032-.314 1.627-.314s1.137.105 1.627.314a3.41 3.41 0 0 1 1.247.9c.34.39.606.864.793 1.42s.28 1.175.28 1.858-.094 1.302-.28 1.858-.45 1.03-.793 1.42a3.41 3.41 0 0 1-1.247.9c-.5.21-1.032.314-1.627.314zm0-1.486c.617 0 1.112-.2 1.486-.57s.562-.95.562-1.71V11.98c0-.76-.187-1.33-.562-1.71s-.87-.57-1.486-.57-1.112.2-1.486.57-.562.95-.562 1.71v1.453c0 .76.187 1.33.562 1.71s.87.57 1.486.57zM137.237 17V8.412h1.8v1.652h.083c.12-.44.374-.826.76-1.156s.92-.495 1.602-.495h.48v1.734h-.7c-.716 0-1.263.116-1.643.347s-.57.573-.57 1.024V17h-1.8zm6.325 0V8.412h1.8v1.42h.083a3.75 3.75 0 0 1 .322-.628c.127-.198.28-.372.462-.52a2.01 2.01 0 0 1 .644-.347c.248-.083.537-.124.867-.124.584 0 1.1.143 1.552.43s.782.727.99 1.32h.05c.154-.484.45-.897.892-1.24s1.007-.512 1.7-.512c.86 0 1.525.29 1.998.867s.7 1.4.7 2.47V17h-1.8v-5.235c0-.66-.127-1.16-.38-1.495s-.655-.504-1.206-.504c-.23 0-.45.03-.66.09s-.394.15-.553.273-.29.275-.388.462-.15.402-.15.644V17h-1.8v-5.235c0-1.332-.523-1.998-1.57-1.998a2.39 2.39 0 0 0-.652.091c-.215.06-.405.15-.57.273s-.297.275-.396.462-.15.402-.15.644V17h-1.8z"/></g></g><path d="M107.9 96.9V65.51" stroke="#19CCA3" stroke-width="2.202" stroke-linecap="square"/></g><g transform="translate(0 96.839)" stroke-dasharray="6.850830287933349"><use filter="url(#E)" xlink:href="#D" fill="#000"/><use mask="url(#F)" xlink:href="#D" stroke="#E3EBFC" stroke-width="4.404" fill="#fff"/></g><g transform="matrix(.981627 -.190809 .190809 .981627 176.1642 51.65834)"><use filter="url(#H)" xlink:href="#G" fill="#000"/><rect x="1.41" y="1.69" width="253.656" height="68.117" rx="9.395" stroke="#E3EBFC" stroke-width="2.349" fill="#fff"/><path d="M67.958 29.263l-1.038-3.115h-4.302l-1.005 3.115h-1.896l3.923-11.505h2.34l3.923 11.505h-1.945zm-3.148-9.79h-.082l-1.665 5.077h3.396l-1.648-5.077zm12.132 8.373h-.082c-.187.505-.492.9-.915 1.187s-.92.43-1.492.43c-1.088 0-1.93-.393-2.522-1.18s-.9-1.887-.9-3.305.297-2.52.9-3.305 1.434-1.18 2.522-1.18c.57 0 1.07.14 1.492.42a2.34 2.34 0 0 1 .915 1.195h.082v-5.044h1.797v12.198H76.94v-1.418zm-1.945.066c.55 0 1.01-.135 1.385-.404a1.25 1.25 0 0 0 .56-1.063v-2.934a1.25 1.25 0 0 0-.56-1.063c-.374-.27-.835-.404-1.385-.404-.626 0-1.126.2-1.5.602s-.56.93-.56 1.59v1.483c0 .66.187 1.2.56 1.59s.874.602 1.5.602zm11.703-.066h-.082c-.187.505-.492.9-.915 1.187s-.92.43-1.492.43c-1.088 0-1.93-.393-2.522-1.18s-.9-1.887-.9-3.305.297-2.52.9-3.305 1.434-1.18 2.522-1.18c.57 0 1.07.14 1.492.42a2.34 2.34 0 0 1 .915 1.195h.082v-5.044h1.797v12.198H86.7v-1.418zm-1.945.066c.55 0 1.01-.135 1.385-.404a1.25 1.25 0 0 0 .56-1.063v-2.934a1.25 1.25 0 0 0-.56-1.063c-.374-.27-.835-.404-1.385-.404-.626 0-1.126.2-1.5.602s-.56.93-.56 1.59v1.483c0 .66.187 1.2.56 1.59s.874.602 1.5.602zm12.577 1.352c-.626 0-1.1-.162-1.418-.486s-.478-.783-.478-1.376v-5.242H94.1V20.69h.725c.297 0 .503-.066.618-.198s.173-.346.173-.643v-1.5h1.615v2.34h1.797v1.467h-1.797v5.637h1.665v1.467H97.33zm9.923 0c-.473 0-.835-.135-1.088-.404s-.407-.613-.462-1.03h-.082c-.165.538-.467.945-.907 1.22s-.973.412-1.6.412c-.9 0-1.574-.23-2.052-.692s-.717-1.082-.717-1.863c0-.857.3-1.5.93-1.93s1.53-.643 2.728-.643h1.55v-.725c0-.527-.143-.934-.43-1.22s-.73-.43-1.335-.43c-.505 0-.918.1-1.236.33a2.95 2.95 0 0 0-.808.841l-1.07-.973c.286-.484.687-.882 1.203-1.195s1.192-.47 2.027-.47c1.1 0 1.96.258 2.555.775s.9 1.258.9 2.225v4.302h.907v1.467h-1.005zm-3.626-1.17c.56 0 1.022-.124 1.385-.37s.544-.58.544-.997v-1.236h-1.516c-1.242 0-1.863.385-1.863 1.154v.297c0 .385.13.673.387.865s.613.288 1.063.288zm13.912 1.978c0 .9-.34 1.56-1.022 2.01s-1.79.676-3.33.676c-.703 0-1.3-.047-1.788-.14s-.9-.228-1.203-.404-.54-.4-.684-.643-.214-.544-.214-.874c0-.473.13-.84.387-1.104s.618-.445 1.08-.544v-.18c-.648-.21-.973-.648-.973-1.32 0-.44.148-.777.445-1.014s.654-.404 1.07-.503v-.066c-.505-.242-.893-.58-1.162-1.014s-.404-.942-.404-1.525c0-.88.294-1.588.882-2.126s1.43-.808 2.53-.808c.604 0 1.12.088 1.55.264v-.23c0-.385.09-.684.272-.898s.464-.32.85-.32h1.32v1.45h-1.747v.346c.385.253.68.58.9.98s.313.85.313 1.343c0 .868-.297 1.57-.9 2.102s-1.44.8-2.538.8c-.418 0-.79-.044-1.12-.132a1.84 1.84 0 0 0-.577.321c-.165.137-.247.316-.247.536 0 .23.104.396.313.494s.505.148.9.148h2.1c1.055 0 1.82.212 2.29.635s.71 1.003.71 1.74zm-1.68.198a.85.85 0 0 0-.338-.709c-.225-.176-.635-.264-1.228-.264h-2.9c-.396.23-.593.56-.593.99 0 .352.14.635.42.85s.755.32 1.426.32h1.12c1.396 0 2.093-.396 2.093-1.187zm-2.687-5.242c.527 0 .937-.118 1.228-.354s.437-.602.437-1.096v-.33c0-.494-.146-.86-.437-1.096s-.7-.354-1.228-.354-.937.118-1.228.354-.437.602-.437 1.096v.33c0 .494.146.86.437 1.096s.7.354 1.228.354zm6.972 4.434c-.407 0-.71-.107-.907-.32s-.297-.48-.297-.8v-.247c0-.32.1-.585.297-.8s.5-.32.907-.32.71.107.907.32.297.48.297.8v.247c0 .32-.1.585-.297.8s-.5.32-.907.32zm0-6.395c-.407 0-.71-.107-.907-.32s-.297-.48-.297-.8v-.247c0-.32.1-.585.297-.8s.5-.32.907-.32.71.107.907.32.297.48.297.8v.247c0 .32-.1.585-.297.8s-.5.32-.907.32zm7.862-5.308h4.07c.736 0 1.404.12 2.003.363s1.1.602 1.533 1.08.75 1.077.98 1.797.346 1.558.346 2.514-.115 1.794-.346 2.514-.558 1.32-.98 1.797-.934.838-1.533 1.08-1.266.363-2.003.363h-4.07V17.757zm4.07 9.857c.857 0 1.55-.27 2.077-.808s.79-1.33.79-2.374v-1.846c0-1.044-.264-1.835-.79-2.374s-1.22-.808-2.077-.808h-2.21v8.21h2.21zm10.417 1.846c-.593 0-1.135-.104-1.624-.313a3.4 3.4 0 0 1-1.244-.898c-.34-.4-.604-.863-.79-1.418s-.28-1.173-.28-1.854.093-1.3.28-1.854.45-1.027.79-1.418a3.4 3.4 0 0 1 1.244-.898c.49-.21 1.03-.313 1.624-.313s1.135.104 1.624.313a3.4 3.4 0 0 1 1.244.898c.34.4.604.863.79 1.418s.28 1.173.28 1.854-.093 1.3-.28 1.854-.45 1.027-.79 1.418a3.4 3.4 0 0 1-1.244.898c-.49.21-1.03.313-1.624.313zm0-1.483c.615 0 1.1-.2 1.483-.57s.56-.948.56-1.706v-1.45c0-.758-.187-1.327-.56-1.706s-.868-.57-1.483-.57-1.1.2-1.483.57-.56.948-.56 1.706v1.45c0 .758.187 1.327.56 1.706s.868.57 1.483.57zm5.077-7.286h1.747l.874 3.593.775 3.247h.05l.9-3.247 1.038-3.593h1.615l1.055 3.593.907 3.247h.05l.758-3.247.9-3.593h1.665l-2.308 8.57h-2.027l-1.813-6.313h-.033l-.676 2.407-1.137 3.907h-1.978l-2.34-8.57zm14.027 8.57v-8.57h1.797v1.418h.082c.187-.462.47-.846.85-1.154s.898-.462 1.558-.462c.88 0 1.563.288 2.052.865s.734 1.398.734 2.464v5.44h-1.797v-5.21c0-1.34-.538-2.01-1.615-2.01a2.63 2.63 0 0 0-.684.091 1.94 1.94 0 0 0-.602.272c-.176.12-.316.275-.42.462a1.33 1.33 0 0 0-.157.659v5.736H161.6zm11.4 0c-.615 0-1.074-.157-1.376-.47s-.453-.75-.453-1.3V17.065h1.797v10.73h1.187v1.467h-1.154zm6.23.198c-.593 0-1.135-.104-1.624-.313a3.4 3.4 0 0 1-1.244-.898c-.34-.4-.604-.863-.79-1.418s-.28-1.173-.28-1.854.093-1.3.28-1.854.45-1.027.79-1.418a3.4 3.4 0 0 1 1.244-.898c.49-.21 1.03-.313 1.624-.313s1.135.104 1.624.313a3.4 3.4 0 0 1 1.244.898c.34.4.604.863.79 1.418s.28 1.173.28 1.854-.093 1.3-.28 1.854-.45 1.027-.79 1.418a3.4 3.4 0 0 1-1.244.898c-.49.21-1.03.313-1.624.313zm0-1.483c.615 0 1.1-.2 1.483-.57s.56-.948.56-1.706v-1.45c0-.758-.187-1.327-.56-1.706s-.868-.57-1.483-.57-1.1.2-1.483.57-.56.948-.56 1.706v1.45c0 .758.187 1.327.56 1.706s.868.57 1.483.57zm12.214 1.286c-.473 0-.835-.135-1.088-.404s-.407-.613-.462-1.03h-.082c-.165.538-.467.945-.907 1.22s-.973.412-1.6.412c-.9 0-1.574-.23-2.052-.692s-.717-1.082-.717-1.863c0-.857.3-1.5.93-1.93s1.53-.643 2.728-.643h1.55v-.725c0-.527-.143-.934-.43-1.22s-.73-.43-1.335-.43c-.505 0-.918.1-1.236.33a2.95 2.95 0 0 0-.808.841l-1.07-.973c.286-.484.687-.882 1.203-1.195s1.192-.47 2.027-.47c1.1 0 1.96.258 2.555.775s.9 1.258.9 2.225v4.302h.907v1.467h-1.005zm-3.626-1.17c.56 0 1.022-.124 1.385-.37s.544-.58.544-.997v-1.236h-1.516c-1.242 0-1.863.385-1.863 1.154v.297c0 .385.13.673.387.865s.613.288 1.063.288zm11.785-.247h-.082c-.187.505-.492.9-.915 1.187s-.92.43-1.492.43c-1.088 0-1.93-.393-2.522-1.18s-.9-1.887-.9-3.305.297-2.52.9-3.305 1.434-1.18 2.522-1.18c.57 0 1.07.14 1.492.42a2.34 2.34 0 0 1 .915 1.195h.082v-5.044h1.797v12.198h-1.797v-1.418zm-1.945.066c.55 0 1.01-.135 1.385-.404a1.25 1.25 0 0 0 .56-1.063V23.5a1.25 1.25 0 0 0-.56-1.063c-.374-.27-.835-.404-1.385-.404-.626 0-1.126.2-1.5.602s-.56.93-.56 1.59v1.483c0 .66.187 1.2.56 1.59s.874.602 1.5.602zm9.676 1.55c-.615 0-1.165-.104-1.648-.313a3.42 3.42 0 0 1-1.236-.898c-.34-.4-.602-.863-.783-1.418s-.272-1.173-.272-1.854.09-1.3.272-1.854.442-1.027.783-1.418a3.42 3.42 0 0 1 1.236-.898c.484-.21 1.033-.313 1.648-.313.626 0 1.18.1 1.657.33s.876.525 1.195.915.558.843.717 1.36a5.62 5.62 0 0 1 .239 1.665v.676h-5.885v.28c0 .66.195 1.2.585 1.624s.948.635 1.673.635c.527 0 .973-.115 1.335-.346s.67-.544.923-.94l1.055 1.038c-.32.527-.78.948-1.385 1.26s-1.308.47-2.1.47zm0-7.566c-.308 0-.59.055-.85.165a1.88 1.88 0 0 0-.659.462c-.18.198-.32.434-.42.71a2.66 2.66 0 0 0-.148.907v.115h3.99v-.165c0-.66-.17-1.2-.51-1.59s-.808-.602-1.4-.602zm11.192 5.95h-.082c-.187.505-.492.9-.915 1.187s-.92.43-1.492.43c-1.088 0-1.93-.393-2.522-1.18s-.9-1.887-.9-3.305.297-2.52.9-3.305 1.434-1.18 2.522-1.18c.57 0 1.07.14 1.492.42a2.34 2.34 0 0 1 .915 1.195h.082v-5.044h1.797v12.198h-1.797v-1.418zm-1.945.066c.55 0 1.01-.135 1.385-.404a1.25 1.25 0 0 0 .56-1.063V23.5a1.25 1.25 0 0 0-.56-1.063c-.374-.27-.835-.404-1.385-.404-.626 0-1.126.2-1.5.602s-.56.93-.56 1.59v1.483c0 .66.187 1.2.56 1.59s.874.602 1.5.602zM60.77 51.263V39.757h7.187v1.648h-5.324v3.198h4.73v1.648h-4.73v5.01H60.77zm9.264 0v-8.57h1.797v1.648h.082c.12-.44.374-.824.758-1.154s.918-.494 1.6-.494h.478v1.73h-.71c-.714 0-1.26.115-1.64.346a1.12 1.12 0 0 0-.569 1.022v5.472h-1.797zm9.676.198c-.615 0-1.165-.104-1.648-.313a3.42 3.42 0 0 1-1.236-.898c-.34-.4-.602-.863-.783-1.418s-.272-1.173-.272-1.854.09-1.3.272-1.854.442-1.027.783-1.418a3.42 3.42 0 0 1 1.236-.898c.484-.21 1.033-.313 1.648-.313.626 0 1.18.1 1.657.33s.876.525 1.195.915.558.843.717 1.36a5.62 5.62 0 0 1 .239 1.665v.676h-5.885v.28c0 .66.195 1.2.585 1.624s.948.635 1.673.635c.527 0 .973-.115 1.335-.346s.67-.544.923-.94l1.055 1.038c-.32.527-.78.948-1.385 1.26s-1.308.47-2.1.47zm0-7.566c-.308 0-.59.055-.85.165a1.88 1.88 0 0 0-.659.462c-.18.198-.32.434-.42.71a2.66 2.66 0 0 0-.148.907v.115h3.99v-.165c0-.66-.17-1.2-.51-1.59s-.808-.602-1.4-.602zm9.165 7.566c-.615 0-1.165-.104-1.648-.313a3.42 3.42 0 0 1-1.236-.898c-.34-.4-.602-.863-.783-1.418s-.272-1.173-.272-1.854.09-1.3.272-1.854.442-1.027.783-1.418a3.42 3.42 0 0 1 1.236-.898c.484-.21 1.033-.313 1.648-.313.626 0 1.18.1 1.657.33s.876.525 1.195.915.558.843.717 1.36a5.62 5.62 0 0 1 .239 1.665v.676h-5.885v.28c0 .66.195 1.2.585 1.624s.948.635 1.673.635c.527 0 .973-.115 1.335-.346s.67-.544.923-.94l1.055 1.038c-.32.527-.78.948-1.385 1.26s-1.308.47-2.1.47zm0-7.566c-.308 0-.59.055-.85.165a1.88 1.88 0 0 0-.659.462c-.18.198-.32.434-.42.71a2.66 2.66 0 0 0-.148.907v.115h3.99v-.165c0-.66-.17-1.2-.51-1.59s-.808-.602-1.4-.602zm14.274 7.566c-.747 0-1.426-.13-2.036-.387a4.23 4.23 0 0 1-1.566-1.137c-.434-.5-.77-1.12-1.005-1.863s-.354-1.596-.354-2.563.118-1.82.354-2.563.57-1.363 1.005-1.863a4.23 4.23 0 0 1 1.566-1.137c.6-.258 1.288-.387 2.036-.387s1.426.13 2.036.387a4.23 4.23 0 0 1 1.566 1.137c.434.5.77 1.12 1.005 1.863s.354 1.596.354 2.563-.118 1.82-.354 2.563-.57 1.363-1.005 1.863a4.23 4.23 0 0 1-1.566 1.137c-.6.258-1.288.387-2.036.387zm0-1.665a3.11 3.11 0 0 0 1.212-.231c.368-.154.68-.376.94-.668s.46-.646.602-1.063.214-.9.214-1.418v-1.813c0-.527-.07-1-.214-1.418s-.343-.772-.602-1.063-.57-.514-.94-.668a3.11 3.11 0 0 0-1.212-.231c-.45 0-.857.077-1.22.23a2.57 2.57 0 0 0-.931.668c-.258.29-.46.646-.602 1.063s-.214.9-.214 1.418v1.813c0 .527.07 1 .214 1.418s.343.772.602 1.063a2.57 2.57 0 0 0 .931.668c.363.154.77.23 1.22.23zm7.6-5.637h-1.302V42.69h1.302v-1.418c0-.692.18-1.233.544-1.624s.907-.585 1.632-.585h1.418v1.467h-1.797v2.16h1.797v1.467h-1.797v7.104h-1.797v-7.104zm5.604 0h-1.302V42.69h1.302v-1.418c0-.692.18-1.233.544-1.624s.907-.585 1.632-.585h1.418v1.467h-1.797v2.16h1.797v1.467h-1.797v7.104h-1.797v-7.104zm8.522 7.302c-.615 0-1.165-.104-1.648-.313a3.42 3.42 0 0 1-1.236-.898c-.34-.4-.602-.863-.783-1.418s-.272-1.173-.272-1.854.09-1.3.272-1.854.442-1.027.783-1.418a3.42 3.42 0 0 1 1.236-.898c.484-.21 1.033-.313 1.648-.313.626 0 1.18.1 1.657.33s.876.525 1.195.915.558.843.717 1.36a5.62 5.62 0 0 1 .239 1.665v.676h-5.885v.28c0 .66.195 1.2.585 1.624s.948.635 1.673.635c.527 0 .973-.115 1.335-.346s.67-.544.923-.94l1.055 1.038c-.32.527-.78.948-1.385 1.26s-1.308.47-2.1.47zm0-7.566c-.308 0-.59.055-.85.165a1.88 1.88 0 0 0-.659.462c-.18.198-.32.434-.42.71a2.66 2.66 0 0 0-.148.907v.115h3.99v-.165c0-.66-.17-1.2-.51-1.59s-.808-.602-1.4-.602zm5.802 7.368v-8.57h1.797v1.648h.082c.12-.44.374-.824.758-1.154s.918-.494 1.6-.494h.478v1.73h-.71c-.714 0-1.26.115-1.64.346a1.12 1.12 0 0 0-.569 1.022v5.472h-1.797z" fill="#4E5468"/><g transform="translate(25.314 23.688)"><mask fill="#fff"><use xlink:href="#I"/></mask><use transform="matrix(.707107 -.707107 .707107 .707107 -4.229894 10.241813)" xlink:href="#I" fill="#19CCA3" fill-rule="nonzero"/></g></g></g></svg>