<svg xmlns="http://www.w3.org/2000/svg" xmlns:xlink="http://www.w3.org/1999/xlink" width="436" height="406"><style><![CDATA[.B{fill:#fff}.C{mask:url(#C)}.D{fill-rule:nonzero}.E{fill:#E63D68}.F{fill:#619EF3}]]></style><defs><path id="A" d="M0 17h436v364H0z"/><linearGradient x1="50%" y1="28.7104932%" x2="50%" y2="100%" id="B"><stop stop-color="#F7F9FF" offset="0%"/><stop stop-color="#fff" stop-opacity="0" offset="100%"/></linearGradient></defs><g fill="none"><mask id="C" class="B"><use xlink:href="#A"/></mask><g class="D"><use xlink:href="#A" class="B"/><g class="C"><path d="M31-85h380V85H31z" fill="#F7F9FF"/><path d="M48.273 7.203h286.44v5.763H48.273z" fill="#356AE6"/><path d="M48.273 30.254h320.265v5.763H48.273zm0 23.05h156.894v5.763H48.273z" fill="#E3EBFC"/><path d="M31 322h380v170H31z" fill="#F7F9FF"/><g fill="#E3EBFC"><path d="M107.364 346.5H296.1v5.763H107.364zm0 17.3h41.742v5.763h-41.742z"/><ellipse cx="69.103" cy="358.14" rx="20.83" ry="20.852"/></g><path d="M32 100h378v207H32z" stroke="#C1D1F7" stroke-width="2" class="B"/></g></g><g class="C"><path d="M331.547 279h11.508v6h-11.508zm-250.303 0h51.068v6H81.244zm53.956 0h27.332v6H135.2zm210.742 0H397v6h-51.068z" fill="#CED3E0"/><g stroke-width="1.4" stroke="#fff"><ellipse cx="69.736" cy="282" rx="5.754" ry="6" fill="#FBD965"/><ellipse cx="60.385" cy="282" rx="5.754" ry="6" class="E"/><ellipse cx="51.754" cy="282" rx="5.754" ry="6" class="F"/></g><path d="M46 113h351v148H46z" fill="#F7F2FF" class="D"/><g class="D"><g transform="matrix(.994522 .104528 -.104528 .994522 14.320047 144.680557)"><ellipse cx="28.457" cy="28.316" rx="28.457" ry="28.316" class="E"/><path d="M28.817 44.446c-11.047-6.314-16.57-12.083-16.57-17.31 0-3.553.73-7.816 4.36-9.522 4.822-2.267 8.892-1.113 12.21 3.463v.096c3.198-4.728 7.267-5.878 12.21-3.45 4.083 1.74 4.36 5.944 4.36 9.483 0 5.204-5.523 10.95-16.57 17.238z" class="B"/></g><ellipse cx="30.656" cy="90.867" rx="2.882" ry="2.867" class="E"/><g transform="matrix(.990268 -.139173 .139173 .990268 4.259762 116.005669)"><ellipse cx="14.769" cy="14.696" rx="14.769" ry="14.696" class="E"/><path d="M15.13 22.94c-5.763-3.238-8.645-6.197-8.645-8.876 0-1.822.38-4.008 2.275-4.883 2.516-1.163 4.64-.57 6.37 1.776v.05C16.797 8.58 18.92 7.99 21.5 9.237c2.13.893 2.275 3.048 2.275 4.863 0 2.67-2.882 5.615-8.645 8.84z" class="B"/></g><g transform="matrix(.997564 .069756 -.069756 .997564 43.498478 100.345764)"><ellipse cx="8.285" cy="8.244" rx="8.285" ry="8.244" class="E"/><path d="M7.925 12.5c-2.882-1.628-4.323-3.124-4.323-4.488 0-1.002.222-2.204 1.327-2.686 1.298-.566 2.417-.376 3.357.568.913-.96 2.03-1.14 3.355-.537 1.243.49 1.327 1.677 1.327 2.675 0 1.36-1.44 2.85-4.323 4.47v.392l-.36-.193-.36.193V12.5z" class="B"/></g><g transform="matrix(.994522 -.104528 .104528 .994522 363.085846 143.55246)"><ellipse cx="28.574" cy="28.359" rx="28.574" ry="28.359" class="F"/><path d="M36.17 39.487H23.15V28l1.9-2.872h.12l4.492-5.026v-2.208a2.1 2.1 0 0 1 2.1-2.1h.07a2.17 2.17 0 0 1 2.17 2.17v2.137l-.707 5.026h6.87c.99 0 1.795.804 1.795 1.795s-.804 1.795-1.795 1.795c.99 0 1.795.804 1.795 1.795s-.804 1.795-1.795 1.795c.99 0 1.795.804 1.795 1.795s-.804 1.795-1.795 1.795h-.723c.99 0 1.795.804 1.795 1.795s-.804 1.795-1.795 1.795h-3.27zM17.315 27.282h2.987a1.4 1.4 0 0 1 1.4 1.4v10.84a1.4 1.4 0 0 1-1.4 1.4h-2.987a1.4 1.4 0 0 1-1.4-1.4v-10.84a1.4 1.4 0 0 1 1.4-1.4z" class="B"/></g><g transform="matrix(.990268 .139173 -.139173 .990268 403.37265 108.476273)"><ellipse cx="13.745" cy="13.641" rx="13.745" ry="13.641" class="F"/><path d="M18.085 19.385h-6.51V13.64l.904-1.436h-.18l2.17-2.154v-1.07c0-.6.486-1.085 1.085-1.085s1.085.486 1.085 1.085v1.07l-.723 2.154h3.622a.72.72 0 0 1 .718.718.72.72 0 0 1-.718.718h-.36c.595 0 1.077.482 1.077 1.077s-.482 1.077-1.077 1.077c.595 0 1.077.482 1.077 1.077s-.482 1.077-1.077 1.077h.36a.72.72 0 0 1 .718.718.72.72 0 0 1-.718.718h-1.452zM9.357 13.64h.094a1.4 1.4 0 0 1 1.4 1.4v3.662a1.4 1.4 0 0 1-1.4 1.4h-.094a1.4 1.4 0 0 1-1.4-1.4V15.04a1.4 1.4 0 0 1 1.4-1.4z" class="B"/></g><g transform="matrix(.970296 -.241922 .241922 .970296 367.112396 100.210289)"><ellipse cx="7.596" cy="7.538" rx="7.596" ry="7.538" class="F"/><path d="M10.128 11.487H6.51v-3.6l.543-.718h.395l.51-1.436V5.03c0-.4.324-.723.723-.723s.723.324.723.723v.712L8.922 7.18h1.976a1.4 1.4 0 0 1 1.4 1.4v1.508a1.4 1.4 0 0 1-1.4 1.4h-.77zm-5.064-3.6c.4 0 .723.324.723.723v2.143c0 .4-.324.723-.723.723s-.723-.324-.723-.723V8.62c0-.4.324-.723.723-.723z" class="B"/></g><ellipse cx="402.426" cy="90.513" rx="2.532" ry="2.513" class="F"/></g></g><g fill="url(#B)" class="D"><path transform="matrix(-1 0 0 -1 442 25)" d="M31 0h380v25H31z"/><path transform="matrix(-1 0 0 1 442 0)" d="M31 381h380v25H31z"/></g><path d="M221.177 118.447l9.195 34.295 22.662-20.822-6.737 30 34.358-9.2-25.163 25.094 29.4 9.177-29.4 9.177 25.163 25.094-34.358-9.2 6.737 29.997-22.662-20.82-9.195 34.295-9.194-34.295-22.663 20.82 6.737-29.997-34.357 9.2 25.16-25.094-29.4-9.177 29.4-9.177-25.16-25.094 34.357 9.2-6.737-30 22.663 20.822z" fill="#C3A7FC"/><path d="M203.575 167.83c1.184-.15 2.2-.076 3.048.224s1.492.778 1.932 1.434.66 1.432.66 2.328c0 1.104-.284 2.028-.852 2.773s-1.276 1.258-2.124 1.542v.12c2.192.425 3.288 1.653 3.288 3.686a5.5 5.5 0 0 1-.672 2.689c-.448.817-1.1 1.492-1.956 2.025s-1.884.876-3.084 1.03c-1.952.25-3.5-.034-4.644-.85s-1.764-2.2-1.86-4.155l4.008-.5c.032.748.24 1.313.624 1.696s.944.528 1.68.434c.592-.075 1.06-.31 1.404-.707s.516-.874.516-1.434c0-1.392-1.008-1.96-3.024-1.703l-.768.098v-3.336l.744-.095c1.808-.198 2.712-.96 2.712-2.3 0-.576-.156-1-.468-1.272s-.732-.375-1.26-.307c-.576.073-1.032.327-1.368.762s-.528.983-.576 1.645l-4.008.51c.08-1.802.64-3.25 1.68-4.342s2.496-1.758 4.368-1.997zm8.28 7.993c0-2.64.536-4.8 1.608-6.48s2.784-2.67 5.136-2.97c2.336-.298 4.044.257 5.124 1.663s1.62 3.43 1.62 6.07c0 2.656-.54 4.83-1.62 6.518s-2.788 2.683-5.124 2.98c-2.352.3-4.064-.258-5.136-1.674s-1.608-3.45-1.608-6.107zm9.408-1.198c0-1.52-.18-2.66-.54-3.423s-1.068-1.076-2.124-.94c-1.072.137-1.792.636-2.16 1.5s-.552 2.046-.552 3.55c0 1.52.184 2.67.552 3.446s1.088 1.098 2.16.96c1.056-.134 1.764-.637 2.124-1.506s.54-2.065.54-3.585zm9.672-9.824c1.168-.148 2.124.082 2.868.69s1.116 1.554 1.116 2.834-.372 2.32-1.116 3.118-1.7 1.272-2.868 1.42c-1.2.153-2.172-.076-2.916-.685s-1.116-1.554-1.116-2.834.372-2.32 1.116-3.118 1.716-1.275 2.916-1.428zm11.64-1.243l-9.264 18.196-3.96.504 9.264-18.196 3.96-.504zm-12.936 5.44c0 .496.112.87.336 1.12s.528.353.912.304c.4-.05.72-.232.96-.542s.36-.714.36-1.2-.12-.87-.36-1.118-.56-.35-.96-.298a1.28 1.28 0 0 0-.912.537c-.224.308-.336.7-.336 1.207zm11.376 3.927c1.184-.15 2.144.08 2.88.69S245 175.168 245 176.45s-.368 2.323-1.104 3.128-1.696 1.284-2.88 1.435c-1.168.148-2.124-.085-2.868-.703s-1.116-1.566-1.116-2.846.372-2.32 1.116-3.118 1.7-1.272 2.868-1.42zm-1.272 4.194c0 .512.112.894.336 1.145s.536.352.936.3a1.32 1.32 0 0 0 .924-.538c.232-.3.348-.72.348-1.232 0-.496-.116-.87-.348-1.12s-.54-.35-.924-.302c-.4.05-.712.23-.936.54s-.336.71-.336 1.207zm-32.184 19.056c1.328-.17 2.516-.045 3.564.374a5.05 5.05 0 0 1 2.472 2.073c.6.964.9 2.142.9 3.534s-.3 2.646-.9 3.763-1.424 2.017-2.472 2.703-2.236 1.113-3.564 1.282-2.52.045-3.576-.372-1.884-1.108-2.484-2.072-.9-2.14-.9-3.533.3-2.646.9-3.763 1.428-2.018 2.484-2.705 2.248-1.114 3.576-1.283zm0 3.552c-.784.1-1.444.468-1.98 1.104s-.804 1.49-.804 2.563.268 1.854.804 2.346 1.196.688 1.98.588 1.44-.463 1.968-1.09.792-1.477.792-2.55-.264-1.858-.792-2.36-1.184-.7-1.968-.602zm15.648-7.2c-.672.085-1.16.292-1.464.62s-.472.812-.504 1.456l2.424-.31v3.456l-2.424.31v9.936l-4.104.522v-9.936l-1.608.205v-3.456l1.608-.205v-.144c0-1.664.484-3 1.452-4.037s2.372-1.658 4.212-1.893l.864-.086v3.528l-.456.034zm8.832-1.125c-.672.085-1.16.292-1.464.62s-.472.812-.504 1.456l2.424-.31v3.456l-2.424.31v9.936l-4.104.522v-9.936l-1.608.205v-3.456l1.608-.205v-.144c0-1.664.484-3 1.452-4.037s2.372-1.658 4.212-1.893l.864-.086v3.528l-.456.034zm7.872-3.595l-.504 11.8-3.48.443-.504-11.672 4.488-.572zm-.096 13.716v4.104l-4.272.544v-4.104l4.272-.544z" fill="#73f"/></g></svg>